<?xml version="1.0" encoding="UTF-8" standalone="no"?>
<!-- Created with Inkscape (http://www.inkscape.org/) -->

<svg
   xmlns:dc="http://purl.org/dc/elements/1.1/"
   xmlns:cc="http://creativecommons.org/ns#"
   xmlns:rdf="http://www.w3.org/1999/02/22-rdf-syntax-ns#"
   xmlns:svg="http://www.w3.org/2000/svg"
   xmlns="http://www.w3.org/2000/svg"
   version="1.1"
   width="99.769318"
   height="102.64289"
   viewBox="-3 -2 99.769315 102.64289"
   id="svg3127">
  <title
     id="title3131">Ebbinghaus Illusion</title>
  <defs
     id="defs3161" />
  <metadata
     id="metadata3129">
    <rdf:RDF>
      <cc:Work
         rdf:about="">
        <dc:format>image/svg+xml</dc:format>
        <dc:type
           rdf:resource="http://purl.org/dc/dcmitype/StillImage" />
        <dc:title>Ebbinghaus Illusion</dc:title>
      </cc:Work>
    </rdf:RDF>
  </metadata>
  <g
     transform="translate(-30.302659,-7.2684849)"
     id="g4304">
    <g
       id="g3320"
       style="stroke:#f60303;stroke-width:1.25;stroke-miterlimit:4;stroke-opacity:1;stroke-dasharray:none">
      <path
         d="m 116.71767,38.483424 c -0.12872,0 -0.38616,0.12872 -0.38616,0 0,-0.128721 0.47718,0.09102 0.38616,0 -0.11603,-0.116028 -0.32085,-0.06956 -0.4827,-0.09654 -0.0317,-0.0053 -0.0738,0.02276 -0.0965,0 -0.0228,-0.02275 0.0228,-0.07379 0,-0.09654 -0.0228,-0.02276 -0.0738,0.02275 -0.0965,0 -0.0228,-0.02276 0.0228,-0.07379 0,-0.09654 -0.0455,-0.04551 -0.14758,0.04551 -0.19308,0 -0.0228,-0.02275 0.0228,-0.07379 0,-0.09654 -0.0228,-0.02276 -0.0738,0.02275 -0.0965,0 -0.0228,-0.02276 0.0228,-0.07379 0,-0.09654 -0.0228,-0.02276 -0.0738,0.02275 -0.0965,0 -0.0455,-0.04551 0.0455,-0.147571 0,-0.193081 -0.0228,-0.02276 -0.0738,0.02275 -0.0965,0 -0.0455,-0.04551 0.0455,-0.147572 0,-0.193082 -0.0228,-0.02275 -0.0738,0.02276 -0.0965,0 -0.0232,-0.02323 0.0232,-0.362932 0,-0.386162 -0.0227,-0.02275 -0.0738,0.02276 -0.0965,0 -0.0455,-0.04551 0.0455,-0.147572 0,-0.193082 -0.0228,-0.02275 -0.0738,0.02275 -0.0965,0 -0.0455,-0.04551 0.0455,-0.147571 0,-0.193081 -0.0228,-0.02276 -0.0738,0.02275 -0.0965,0 -0.0455,-0.04551 0.0455,-0.147572 0,-0.193081 -0.0227,-0.02276 -0.0738,0.02275 -0.0965,0 -0.0455,-0.04551 0.0455,-0.147572 0,-0.193082 -0.0455,-0.04551 -0.14757,0.04551 -0.19308,0 -0.0455,-0.04551 0.0455,-0.147571 0,-0.193081 -0.0228,-0.02275 -0.0738,0.02275 -0.0965,0 -0.0228,-0.02275 0.0228,-0.07379 0,-0.09654 -0.0228,-0.02275 -0.0738,0.02276 -0.0965,0 -0.0228,-0.02275 0.0228,-0.07379 0,-0.09654 -0.0228,-0.02276 -0.0738,0.02275 -0.0965,0 -0.0455,-0.04551 0.0455,-0.147572 0,-0.193082 -0.0228,-0.02275 -0.0738,0.02276 -0.0965,0 -0.0228,-0.02275 0.0228,-0.07378 0,-0.09654 -0.0228,-0.02275 -0.0738,0.02276 -0.0965,0 -0.0455,-0.04551 0.0455,-0.147572 0,-0.193082 -0.0228,-0.02275 -0.0738,0.02275 -0.0965,0 -0.0228,-0.02275 0.0228,-0.07379 0,-0.09654 -0.0228,-0.02275 -0.0738,0.02276 -0.0965,0 -0.0455,-0.04551 0.0455,-0.147572 0,-0.193082 -0.0228,-0.02275 -0.0738,0.02275 -0.0965,0 -0.0228,-0.02275 0.0228,-0.07379 0,-0.09654 -0.0228,-0.02275 -0.0738,0.02276 -0.0965,0 -0.0455,-0.04551 0.0455,-0.147572 0,-0.193082 -0.0227,-0.02275 -0.0738,0.02276 -0.0965,0 -0.0455,-0.04551 0.0455,-0.147571 0,-0.193081 -0.0228,-0.02276 -0.0738,0.02275 -0.0965,0 -0.0455,-0.04551 0.0455,-0.147572 0,-0.193081 -0.0228,-0.02276 -0.0738,0.02275 -0.0965,0 -0.0483,-0.04827 0.0483,-0.241352 0,-0.289622 -0.0227,-0.02275 -0.0738,0.02276 -0.0965,0 -0.0483,-0.04827 0.0483,-0.241352 0,-0.289622 -0.0228,-0.02275 -0.0738,0.02276 -0.0965,0 -0.0232,-0.02323 0.0232,-0.362932 0,-0.386163 -0.0228,-0.02276 -0.0738,0.02275 -0.0965,0 -0.0232,-0.02323 0.0232,-0.362932 0,-0.386163 -0.0228,-0.02275 -0.0738,0.02276 -0.0965,0 -0.0455,-0.04551 0.0455,-0.147571 0,-0.193081 -0.0228,-0.02275 -0.0738,0.02276 -0.0965,0 -0.004,-0.0044 0,-0.437185 0,-0.482703 0,-0.03218 0.0228,-0.07379 0,-0.09654 -0.0228,-0.02276 -0.0738,0.02275 -0.0965,0 -0.0232,-0.02323 0.0232,-0.362932 0,-0.386163 -0.0228,-0.02275 -0.0738,0.02275 -0.0965,0 -0.0455,-0.04551 0.0455,-0.147571 0,-0.193081 -0.0228,-0.02276 -0.0738,0.02276 -0.0965,0 -0.0455,-0.04551 0.0455,-0.147572 0,-0.193081 -0.0228,-0.02276 -0.0738,0.02275 -0.0966,0 -0.0455,-0.04551 0.0455,-0.147572 0,-0.193082 -0.0227,-0.02276 -0.0738,0.02276 -0.0965,0 -0.0228,-0.02276 0.0228,-0.07379 0,-0.09654 -0.0228,-0.02276 -0.0738,0.02275 -0.0965,0 -0.0455,-0.04551 0.0455,-0.147572 0,-0.193082 -0.0228,-0.02276 -0.0738,0.02276 -0.0965,0 -0.0227,-0.02276 0.0144,-0.06776 0,-0.09654 -0.0203,-0.04071 -0.0762,-0.05584 -0.0965,-0.09654 -0.0144,-0.02878 0.0228,-0.07379 0,-0.09654 -0.0228,-0.02276 -0.0738,0.02276 -0.0965,0 -0.0455,-0.04551 0.0455,-0.147571 0,-0.193081 -0.0228,-0.02276 -0.0738,0.02276 -0.0965,0 -0.0455,-0.04551 0.0455,-0.147572 0,-0.193081 -0.0227,-0.02276 -0.0738,0.02275 -0.0965,0 -0.0228,-0.02276 0.0228,-0.07379 0,-0.09654 -0.0228,-0.02276 -0.0738,0.02276 -0.0965,0 -0.0455,-0.04551 0.0455,-0.147572 0,-0.193082 -0.0228,-0.02275 -0.0738,0.02276 -0.0965,0 -0.0228,-0.02275 0.0228,-0.07379 0,-0.09654 -0.0228,-0.02276 -0.0738,0.02276 -0.0965,0 -0.0228,-0.02276 0.0228,-0.07379 0,-0.09654 -0.0228,-0.02276 -0.0738,0.02276 -0.0965,0 -0.0455,-0.04551 0.0455,-0.147571 0,-0.193081 -0.0228,-0.02276 -0.0738,0.02276 -0.0965,0 -0.0228,-0.02276 0.0228,-0.07379 0,-0.09654 -0.0228,-0.02276 -0.0738,0.02276 -0.0965,0 -0.0455,-0.04551 0.0455,-0.147571 0,-0.193081 -0.0228,-0.02276 -0.0738,0.02276 -0.0965,0 -0.0228,-0.02276 0.0228,-0.07379 0,-0.09654 -0.0228,-0.02275 -0.0738,0.02276 -0.0966,0 -0.0227,-0.02275 0.0228,-0.07379 0,-0.09654 -0.0227,-0.02275 -0.0738,0.02276 -0.0965,0 -0.0455,-0.04551 0.0455,-0.147571 0,-0.193081 -0.0228,-0.02276 -0.0738,0.02276 -0.0965,0 -0.0228,-0.02276 0.0228,-0.07379 0,-0.09654 -0.0228,-0.02275 -0.0738,0.02276 -0.0965,0 -0.0455,-0.04551 0.0455,-0.147571 0,-0.193081 -0.0227,-0.02276 -0.0738,0.02276 -0.0965,0 -0.0228,-0.02276 0.0228,-0.07379 0,-0.09654 -0.0228,-0.02275 -0.0738,0.02276 -0.0965,0 -0.0455,-0.04551 0.0455,-0.147571 0,-0.193081 -0.0228,-0.02276 -0.0738,0.02276 -0.0965,0 -0.0455,-0.04551 0.0455,-0.147572 0,-0.193081 -0.0227,-0.02276 -0.0738,0.02276 -0.0965,0 -0.0228,-0.02276 0.0228,-0.07379 0,-0.09654 -0.0228,-0.02276 -0.0738,0.02276 -0.0965,0 -0.0644,-0.06443 0.0644,-0.128652 0,-0.193081 -0.0228,-0.02276 -0.0738,0.02276 -0.0965,0 -0.0228,-0.02276 0.0228,-0.07379 0,-0.09654 -0.0228,-0.02276 -0.0738,0.02276 -0.0965,0 -0.0228,-0.02276 0.0228,-0.07379 0,-0.09654 -0.0228,-0.02275 -0.0738,0.02276 -0.0965,0 -0.0228,-0.02275 0.0144,-0.06776 0,-0.09654 -0.0204,-0.0407 -0.0762,-0.05584 -0.0965,-0.09654 -0.0288,-0.05757 0.0455,-0.147572 0,-0.193081 -0.0228,-0.02276 -0.0738,0.02276 -0.0965,0 -0.0228,-0.02276 0.0227,-0.07379 0,-0.09654 -0.0228,-0.02276 -0.0738,0.02276 -0.0966,0 -0.0455,-0.04551 0.0455,-0.147572 0,-0.193081 -0.0228,-0.02276 -0.0738,0.02276 -0.0965,0 -0.0227,-0.02276 0.0228,-0.07379 0,-0.09654 -0.0227,-0.02276 -0.0738,0.02276 -0.0965,0 -0.0455,-0.04551 0.0455,-0.147572 0,-0.193081 -0.0228,-0.02276 -0.0738,0.02276 -0.0965,0 -0.0455,-0.04551 0.0455,-0.147572 0,-0.193082 -0.0228,-0.02276 -0.0738,0.02276 -0.0965,0 -0.0227,-0.02276 0.0144,-0.06776 0,-0.09654 -0.0203,-0.0407 -0.0762,-0.05584 -0.0965,-0.09654 -0.0144,-0.02878 0.0228,-0.07379 0,-0.09654 -0.0228,-0.02276 -0.0738,0.02276 -0.0965,0 -0.0228,-0.02276 0.0228,-0.07379 0,-0.09654 -0.0228,-0.02276 -0.0738,0.02276 -0.0965,0 -0.0227,-0.02276 0.0228,-0.07379 0,-0.09654 -0.0227,-0.02276 -0.0738,0.02276 -0.0965,0 -0.0455,-0.04551 0.0455,-0.147572 0,-0.193081 -0.0455,-0.04551 -0.14757,0.04551 -0.19308,0 -0.0455,-0.04551 0.0455,-0.147572 0,-0.193082 -0.0455,-0.04551 -0.14757,0.04551 -0.19308,0 -0.0228,-0.02276 0.0228,-0.07379 0,-0.09654 -0.0228,-0.02276 -0.0738,0.02275 -0.0965,0 -0.0228,-0.02276 0.0228,-0.07379 0,-0.09654 -0.0228,-0.02276 -0.0738,0.02276 -0.0965,0 -0.0228,-0.02276 0.0227,-0.07379 0,-0.09654 -0.0455,-0.04551 -0.14758,0.04551 -0.19309,0 -0.0227,-0.02276 0.0228,-0.07379 0,-0.09654 -0.0455,-0.04551 -0.14757,0.04551 -0.19308,0 -0.0228,-0.02276 0.0228,-0.07379 0,-0.09654 -0.0483,-0.04827 -0.24135,0.04827 -0.28962,0 -0.0228,-0.02276 0.0228,-0.07379 0,-0.09654 -0.004,-0.0044 -0.43718,0 -0.4827,0 -0.22526,0 -0.45053,0 -0.67579,0 -0.0322,0 -0.0738,-0.02276 -0.0965,0 -0.0227,0.02276 0.0228,0.07379 0,0.09654 -0.0483,0.04827 -0.24135,-0.04827 -0.28962,0 -0.0228,0.02276 0.0228,0.07379 0,0.09654 -0.0232,0.02323 -0.36293,-0.02323 -0.38616,0 -0.0228,0.02275 0.0227,0.07379 0,0.09654 -0.0228,0.02276 -0.0644,0 -0.0965,0 -0.0322,0 -0.0644,0 -0.0965,0"
         transform="translate(-3,-2)"
         id="path3316"
         style="fill:none;stroke:#f60303;stroke-width:1.25;stroke-linecap:butt;stroke-linejoin:miter;stroke-miterlimit:4;stroke-opacity:1;stroke-dasharray:none" />
      <path
         d="m 106.38782,25.160811 c -0.0965,0.128721 -0.1609,0.482703 -0.28962,0.386163 -0.12872,-0.09654 0.40339,-0.499937 0.28962,-0.386163 -0.1457,0.145702 -0.24046,0.337001 -0.38616,0.482703 -0.0228,0.02276 -0.0738,-0.02276 -0.0965,0 -0.0228,0.02276 0.0228,0.07379 0,0.09654 -0.0228,0.02276 -0.0738,-0.02276 -0.0965,0 -0.0228,0.02276 0.0227,0.07379 0,0.09654 -0.0228,0.02275 -0.0738,-0.02276 -0.0966,0 -0.0228,0.02275 0.0228,0.07379 0,0.09654 -0.0228,0.02276 -0.0738,-0.02276 -0.0965,0 -0.0227,0.02276 0.0228,0.07379 0,0.09654 -0.0227,0.02276 -0.0738,-0.02276 -0.0965,0 -0.0228,0.02276 0.0228,0.07379 0,0.09654 -0.0228,0.02275 -0.0738,-0.02276 -0.0965,0 -0.0228,0.02275 0.0228,0.07378 0,0.09654 -0.0455,0.04551 -0.14757,-0.04551 -0.19308,0 -0.0228,0.02276 0.0228,0.07379 0,0.09654 -0.0228,0.02276 -0.0738,-0.02276 -0.0965,0 -0.0228,0.02276 0.0228,0.07379 0,0.09654 -0.0228,0.02276 -0.0738,-0.02276 -0.0965,0 -0.0228,0.02276 0.0228,0.07379 0,0.09654 -0.0455,0.04551 -0.14757,-0.04551 -0.19308,0 -0.0228,0.02276 0.0228,0.07379 0,0.09654 -0.0228,0.02276 -0.0738,-0.02276 -0.0965,0 -0.0228,0.02276 0.0228,0.07379 0,0.09654 -0.0228,0.02276 -0.0738,-0.02276 -0.0965,0 -0.0228,0.02276 0.0227,0.07379 0,0.09654 -0.0228,0.02276 -0.0738,-0.02276 -0.0965,0 -0.0228,0.02276 0.0228,0.07379 0,0.09654 -0.0228,0.02276 -0.0738,-0.02276 -0.0965,0 -0.0228,0.02276 0.0228,0.07379 0,0.09654 -0.0228,0.02276 -0.0738,-0.02276 -0.0965,0 0,0.257441 0.0322,-0.03218 -0.0966,0.09654 -0.0228,0.02276 0.0228,0.07379 0,0.09654 -0.0455,0.04551 -0.14757,-0.04551 -0.19308,0 -0.0455,0.04551 0.0455,0.147572 0,0.193081 -0.0228,0.02276 -0.0738,-0.02275 -0.0965,0 -0.0228,0.02276 0.0228,0.07379 0,0.09654 -0.0228,0.02276 -0.0738,-0.02276 -0.0965,0 -0.0228,0.02276 0.0228,0.07379 0,0.09654 -0.0228,0.02276 -0.0738,-0.02276 -0.0965,0 -0.0228,0.02276 0.0228,0.07379 0,0.09654 -0.0228,0.02276 -0.0738,-0.02275 -0.0965,0 -0.0455,0.04551 0.0455,0.147572 0,0.193082 -0.0228,0.02276 -0.0738,-0.02276 -0.0965,0 -0.0228,0.02276 0.0228,0.07379 0,0.09654 -0.0228,0.02276 -0.0738,-0.02275 -0.0965,0 -0.0228,0.02276 0.0227,0.07379 0,0.09654 -0.0228,0.02276 -0.0738,-0.02276 -0.0965,0 -0.0228,0.02276 0.0228,0.07379 0,0.09654 -0.0228,0.02276 -0.0738,-0.02276 -0.0965,0 0,0.257442 0.0322,-0.03218 -0.0965,0.09654 -0.0228,0.02276 0.0144,0.06776 0,0.09654 -0.0204,0.0407 -0.0762,0.05584 -0.0965,0.09654 -0.0144,0.02878 0.0228,0.07379 0,0.09654 -0.0228,0.02276 -0.0738,-0.02275 -0.0965,0 -0.0228,0.02276 0.0228,0.07379 0,0.09654 -0.0228,0.02276 -0.0738,-0.02276 -0.0965,0 -0.0228,0.02276 0.0227,0.07379 0,0.09654 -0.0228,0.02276 -0.0738,-0.02276 -0.0966,0 -0.0228,0.02276 0.0228,0.07379 0,0.09654 -0.0228,0.02276 -0.0644,0 -0.0965,0 0,0.03218 0.0144,0.06776 0,0.09654 -0.20089,0.401779 0.007,-0.103205 -0.19308,0.09654 -0.0455,0.04551 0.0455,0.147571 0,0.193081 -0.0228,0.02276 -0.0738,-0.02276 -0.0965,0 -0.0228,0.02276 0.0144,0.06776 0,0.09654 -0.0203,0.04071 -0.0762,0.05584 -0.0965,0.09654 -0.0144,0.02878 0.0228,0.07379 0,0.09654 -0.0228,0.02276 -0.0738,-0.02275 -0.0965,0 -0.0455,0.04551 0.0455,0.147572 0,0.193081 -0.0228,0.02276 -0.0738,-0.02275 -0.0965,0 -0.0228,0.02276 0.0228,0.07379 0,0.09654 -0.0228,0.02276 -0.0738,-0.02276 -0.0965,0 -0.19975,0.199746 0.30524,-0.0078 -0.0965,0.193081 -0.0288,0.01439 -0.0738,-0.02275 -0.0965,0 -0.0455,0.04551 0.0455,0.147572 0,0.193082 -0.0228,0.02276 -0.0738,-0.02276 -0.0965,0 -0.0228,0.02276 0.0227,0.07379 0,0.09654 -0.0228,0.02276 -0.0738,-0.02275 -0.0965,0 -0.0228,0.02276 0.0228,0.07379 0,0.09654 -0.0228,0.02276 -0.0738,-0.02276 -0.0965,0 -0.0228,0.02276 0.0144,0.06776 0,0.09654 -0.0407,0.08141 -0.15238,0.111671 -0.19309,0.193081 -0.0144,0.02878 0.0228,0.07379 0,0.09654 -0.0228,0.02276 -0.0738,-0.02276 -0.0965,0 -0.0455,0.04551 0.0455,0.147571 0,0.193081 -0.0455,0.04551 -0.14757,-0.04551 -0.19308,0 -0.0455,0.04551 0.0455,0.147572 0,0.193082 -0.0228,0.02275 -0.0738,-0.02276 -0.0965,0 -0.0228,0.02275 0.0228,0.07379 0,0.09654 -0.0228,0.02276 -0.0738,-0.02276 -0.0965,0 -0.0228,0.02276 0.0228,0.07379 0,0.09654 -0.0228,0.02276 -0.0738,-0.02276 -0.0965,0 -0.0228,0.02276 0.0228,0.07379 0,0.09654 -0.0228,0.02275 -0.0738,-0.02276 -0.0965,0 -0.0228,0.02275 0.0228,0.07379 0,0.09654 -0.0228,0.02276 -0.0738,-0.02276 -0.0965,0 -0.0228,0.02276 0.0144,0.06776 0,0.09654 -0.0204,0.0407 -0.0762,0.05584 -0.0965,0.09654 -0.0288,0.05757 0.0455,0.147571 0,0.193081 -0.0228,0.02276 -0.0738,-0.02276 -0.0965,0 0,0.257442 0.0322,-0.03218 -0.0965,0.09654 -0.0228,0.02275 0.0227,0.07379 0,0.09654 -0.0228,0.02275 -0.0738,-0.02275 -0.0965,0 -0.0455,0.04551 0.0455,0.147572 0,0.193082 -0.0228,0.02275 -0.0738,-0.02275 -0.0965,0 -0.0228,0.02275 0.0228,0.07379 0,0.09654 -0.0228,0.02275 -0.0738,-0.02276 -0.0965,0 -0.02276,0.02275 0.0144,0.06776 0,0.09654 -0.02036,0.0407 -0.07619,0.05583 -0.09654,0.09654 -0.01439,0.02878 0.02275,0.07379 0,0.09654 -0.02276,0.02275 -0.07379,-0.02276 -0.09654,0 -0.04551,0.04551 0.04551,0.147572 0,0.193082 -0.02276,0.02275 -0.07379,-0.02275 -0.09654,0 -0.02276,0.02275 0.02276,0.07379 0,0.09654 -0.02276,0.02276 -0.07379,-0.02275 -0.09654,0 -0.02276,0.02276 0.02275,0.07379 0,0.09654 -0.02276,0.02276 -0.07379,-0.02275 -0.09654,0 -0.04551,0.04551 0.04551,0.147572 0,0.193081 -0.02276,0.02276 -0.07379,-0.02275 -0.09654,0 -0.04551,0.04551 0.04551,0.147572 0,0.193082 -0.02276,0.02275 -0.07379,-0.02276 -0.09654,0 -0.04551,0.04551 0.04551,0.147571 0,0.193081 -0.02276,0.02275 -0.07379,-0.02276 -0.09654,0 -0.04551,0.04551 0.04551,0.147572 0,0.193081 -0.02275,0.02275 -0.07379,-0.02276 -0.09654,0 -0.04551,0.04551 0.04551,0.147572 0,0.193082 -0.02275,0.02276 -0.06776,-0.01439 -0.09654,0 -0.213456,0.106728 -0.02996,0.05992 -0.09654,0.193081 -0.02035,0.04071 -0.07619,0.05584 -0.09654,0.09654 -0.01439,0.02878 0.02276,0.07379 0,0.09654 -0.02276,0.02276 -0.07379,-0.02275 -0.09654,0 -0.04551,0.04551 0.04551,0.147572 0,0.193082 -0.02275,0.02275 -0.07379,-0.02276 -0.09654,0 -0.04551,0.04551 0.04551,0.147571 0,0.193081 -0.02275,0.02275 -0.07379,-0.02276 -0.09654,0 -0.04551,0.04551 0.04551,0.147572 0,0.193081 -0.02276,0.02276 -0.07379,-0.02275 -0.09654,0 -0.04551,0.04551 0.04551,0.147572 0,0.193082 -0.02275,0.02276 -0.07379,-0.02275 -0.09654,0 -0.04551,0.04551 0.04551,0.147571 0,0.193081 -0.02276,0.02275 -0.07379,-0.02276 -0.09654,0 -0.04551,0.04551 0.02878,0.135516 0,0.193081 -0.02035,0.04071 -0.07619,0.05584 -0.09654,0.09654 -0.01439,0.02878 0.01439,0.06776 0,0.09654 -0.02035,0.04071 -0.07619,0.05584 -0.09654,0.09654 -0.01439,0.02878 0.01439,0.06776 0,0.09654 -0.02035,0.04071 -0.07619,0.05584 -0.09654,0.09654 -0.02878,0.05756 0.04551,0.147571 0,0.193081 -0.02276,0.02275 -0.07379,-0.02275 -0.09654,0 -0.06443,0.06443 0.06443,0.128652 0,0.193081 -0.02275,0.02276 -0.07379,-0.02275 -0.09654,0 -0.04551,0.04551 0.04551,0.147572 0,0.193082 -0.02275,0.02275 -0.07379,-0.02276 -0.09654,0 -0.04551,0.04551 0.04551,0.147571 0,0.193081 -0.02275,0.02275 -0.07379,-0.02276 -0.09654,0 -0.04551,0.04551 0.04551,0.147572 0,0.193081 -0.02275,0.02275 -0.07379,-0.02275 -0.09654,0 -0.04551,0.04551 0.04551,0.147572 0,0.193082 -0.02276,0.02276 -0.07379,-0.02275 -0.09654,0 -0.04551,0.04551 0.04551,0.147571 0,0.193081 -0.02276,0.02276 -0.07379,-0.02275 -0.09654,0 -0.04827,0.04827 0.04827,0.241352 0,0.289622 -0.02275,0.02276 -0.07379,-0.02275 -0.09654,0 -0.04551,0.04551 0.04551,0.147572 0,0.193082 -0.02275,0.02275 -0.07379,-0.02275 -0.09654,0 -0.04551,0.04551 0.04551,0.147571 0,0.193081 -0.02276,0.02275 -0.07379,-0.02276 -0.09654,0 -0.04551,0.04551 0.02878,0.135515 0,0.193081 -0.02035,0.0407 -0.07619,0.05584 -0.09654,0.09654 -0.01439,0.02878 0.02276,0.07379 0,0.09654 -0.02276,0.02275 -0.07379,-0.02275 -0.09654,0 -0.04827,0.04827 0.04827,0.241351 0,0.289622 -0.02276,0.02275 -0.07379,-0.02276 -0.09654,0 -0.04551,0.04551 0.04551,0.147571 0,0.193081 -0.02275,0.02275 -0.07379,-0.02276 -0.09654,0 -0.04551,0.04551 0.04551,0.147572 0,0.193081 -0.02276,0.02276 -0.07379,-0.02275 -0.09654,0 -0.04551,0.04551 0.02878,0.135516 0,0.193082 -0.02035,0.0407 -0.07619,0.05583 -0.09654,0.09654 -0.02878,0.05757 0.04551,0.147572 0,0.193082 -0.02275,0.02275 -0.07379,-0.02275 -0.09654,0 -0.04551,0.04551 0.04551,0.147571 0,0.193081 -0.02276,0.02276 -0.07379,-0.02275 -0.09654,0 -0.04551,0.04551 0.04551,0.147572 0,0.193081 -0.02275,0.02276 -0.07379,-0.02275 -0.09654,0 -0.04551,0.04551 0.04551,0.147572 0,0.193082 -0.02275,0.02275 -0.07379,-0.02276 -0.09654,0 -0.06443,0.06443 0.06443,0.128651 0,0.193081 -0.02276,0.02275 -0.07379,-0.02275 -0.09654,0 -0.04551,0.04551 0.04551,0.147572 0,0.193081 -0.02276,0.02276 -0.07379,-0.02275 -0.09654,0 -0.02276,0.02276 0.02276,0.07379 0,0.09654 -0.02276,0.02275 -0.07379,-0.02276 -0.09654,0 -0.04551,0.04551 0.02878,0.135516 0,0.193081 -0.02035,0.04071 -0.07619,0.05584 -0.09654,0.09654 -0.01439,0.02878 0.02275,0.07379 0,0.09654 -0.02276,0.02276 -0.07379,-0.02275 -0.09654,0 -0.04551,0.04551 0.04551,0.147571 0,0.193081 -0.02276,0.02276 -0.07379,-0.02275 -0.09654,0 -0.02276,0.02276 0.02276,0.07379 0,0.09654 -0.02276,0.02276 -0.07379,-0.02275 -0.09654,0 -0.04551,0.04551 0.04551,0.147571 0,0.193081 -0.02276,0.02276 -0.07379,-0.02275 -0.09654,0 -0.04551,0.04551 0.04551,0.147572 0,0.193081 -0.02275,0.02276 -0.07379,-0.02275 -0.09654,0 -0.02276,0.02276 0.02275,0.07379 0,0.09654 -0.02276,0.02276 -0.07379,-0.02275 -0.09654,0 -0.04551,0.04551 0.04551,0.147572 0,0.193081 -0.02276,0.02276 -0.07379,-0.02275 -0.09654,0 -0.04551,0.04551 0.02878,0.135516 0,0.193082 -0.02035,0.0407 -0.07619,0.05583 -0.09654,0.09654 -0.01439,0.02878 0.02275,0.07379 0,0.09654 -0.02276,0.02275 -0.07379,-0.02276 -0.09654,0 -0.04551,0.04551 0.04551,0.147572 0,0.193081 -0.02275,0.02275 -0.07379,-0.02275 -0.09654,0 -0.04551,0.04551 0.04551,0.147572 0,0.193082 -0.02275,0.02276 -0.07379,-0.02275 -0.09654,0 -0.04551,0.04551 0.04551,0.147571 0,0.193081 -0.02276,0.02276 -0.07379,-0.02275 -0.09654,0 -0.02276,0.02276 0.01439,0.06776 0,0.09654 -0.02035,0.04071 -0.07619,0.05584 -0.09654,0.09654 -0.02878,0.05757 0.04551,0.147572 0,0.193082 -0.02276,0.02275 -0.07379,-0.02276 -0.09654,0 -0.02275,0.02275 0.02275,0.07379 0,0.09654 -0.02275,0.02276 -0.07379,-0.02275 -0.09654,0 -0.04827,0.04827 0.04827,0.241352 0,0.289622 -0.02276,0.02275 -0.07379,-0.02275 -0.09654,0 -0.04551,0.04551 0.04551,0.147572 0,0.193082 -0.02276,0.02276 -0.07379,-0.02275 -0.09654,0 -0.04827,0.04827 0.04827,0.241351 0,0.289622 -0.02276,0.02276 -0.07379,-0.02275 -0.09654,0 -0.04551,0.04551 0.04551,0.147571 0,0.193081 -0.02276,0.02276 -0.07379,-0.02275 -0.09654,0 -0.04827,0.04827 0.04827,0.241352 0,0.289622 -0.02275,0.02276 -0.07379,-0.02275 -0.09654,0 -0.04827,0.04827 0.04827,0.241352 0,0.289622 -0.02276,0.02275 -0.07379,-0.02276 -0.09654,0 -0.04551,0.04551 0.04551,0.147572 0,0.193082 -0.02276,0.02275 -0.07379,-0.02275 -0.09654,0 -0.04551,0.04551 0.04551,0.147571 0,0.193081 -0.02276,0.02276 -0.07379,-0.02275 -0.09654,0 -0.04551,0.04551 0.04551,0.147571 0,0.193081 -0.02276,0.02275 -0.07379,-0.02276 -0.09654,0 -0.04551,0.04551 0.04551,0.147572 0,0.193082 -0.02275,0.02275 -0.07379,-0.02276 -0.09654,0 -0.04551,0.04551 0.04551,0.147571 0,0.193081 -0.02275,0.02276 -0.07379,-0.02275 -0.09654,0 -0.04551,0.04551 0.04551,0.147572 0,0.193081 -0.02276,0.02276 -0.07379,-0.02275 -0.09654,0 -0.04551,0.04551 0.04551,0.147572 0,0.193082 -0.02276,0.02275 -0.07379,-0.02276 -0.09654,0 -0.04551,0.04551 0.04551,0.147571 0,0.193081 -0.02276,0.02275 -0.07379,-0.02276 -0.09654,0 -0.04551,0.04551 0.04551,0.147572 0,0.193081 -0.02275,0.02275 -0.07379,-0.02276 -0.09654,0 -0.04827,0.04827 0.04827,0.241352 0,0.289622 -0.02276,0.02275 -0.07379,-0.02276 -0.09654,0 -0.04551,0.04551 0.04551,0.147572 0,0.193082 -0.02276,0.02275 -0.07379,-0.02276 -0.09654,0 -0.04551,0.04551 0.04551,0.147571 0,0.193081 -0.02276,0.02276 -0.07379,-0.02275 -0.09654,0 -0.04551,0.04551 0.04551,0.147572 0,0.193081 -0.02276,0.02276 -0.07379,-0.02275 -0.09654,0 -0.04551,0.04551 0.04551,0.147572 0,0.193082 -0.02275,0.02275 -0.07379,-0.02276 -0.09654,0 -0.04551,0.04551 0.04551,0.147571 0,0.193081 -0.02276,0.02275 -0.07379,-0.02276 -0.09654,0 -0.04827,0.04827 0.04827,0.241352 0,0.289622 -0.128721,0.128721 -0.09654,-0.160901 -0.09654,0.09654 0,0.03218 0,0.06436 0,0.09654 0,0.03218 0.02276,0.07379 0,0.09654 -0.02276,0.02276 -0.07379,-0.02275 -0.09654,0 -0.04551,0.04551 0.04551,0.147572 0,0.193081 -0.02276,0.02276 -0.07379,-0.02275 -0.09654,0 -0.04827,0.04827 0.04827,0.241352 0,0.289622 -0.02275,0.02276 -0.07379,-0.02275 -0.09654,0 -0.04827,0.04827 0.04827,0.241352 0,0.289622 -0.02275,0.02275 -0.07379,-0.02275 -0.09654,0 -0.04551,0.04551 0.04551,0.147572 0,0.193082 -0.02275,0.02276 -0.07379,-0.02275 -0.09654,0 -0.04551,0.04551 0.04551,0.147571 0,0.193081 -0.02276,0.02275 -0.07379,-0.02276 -0.09654,0 -0.04827,0.04827 0.04827,0.241352 0,0.289622 -0.02276,0.02276 -0.07379,-0.02275 -0.09654,0 -0.160965,0.160966 0.160966,0.03212 0,0.193081 -0.02275,0.02276 -0.07379,-0.02275 -0.09654,0 -0.04551,0.04551 0.02878,0.135516 0,0.193082 -0.02035,0.0407 -0.07619,0.05584 -0.09654,0.09654 -0.02878,0.05757 0.04551,0.147572 0,0.193082 -0.02276,0.02275 -0.07379,-0.02276 -0.09654,0 -0.04551,0.04551 0.04551,0.147571 0,0.193081 -0.02275,0.02275 -0.07379,-0.02276 -0.09654,0 -0.04551,0.04551 0.04551,0.147572 0,0.193081 -0.02276,0.02275 -0.07379,-0.02275 -0.09654,0 -0.02323,0.02323 0.02323,0.362932 0,0.386163 -0.02275,0.02276 -0.07379,-0.02275 -0.09654,0 -0.04827,0.04827 0.04827,0.241352 0,0.289622 -0.02275,0.02276 -0.07379,-0.02275 -0.09654,0 -0.03389,0.03389 0.03334,0.41602 0,0.482703 -0.02035,0.04071 -0.07619,0.05584 -0.09654,0.09654 -0.01914,0.03828 0.01974,0.269886 0,0.289622 -0.02276,0.02275 -0.07379,-0.02276 -0.09654,0 -0.02642,0.02642 0.02619,0.333791 0,0.386163 -0.02035,0.04071 -0.07619,0.05584 -0.09654,0.09654 -0.02878,0.05756 0.04551,0.147571 0,0.193081 -0.02275,0.02275 -0.07379,-0.02276 -0.09654,0 -0.02323,0.02323 0.02323,0.362932 0,0.386163 -0.02275,0.02275 -0.07379,-0.02275 -0.09654,0 -0.04827,0.04827 0.04827,0.241351 0,0.289622 -0.02275,0.02275 -0.07379,-0.02275 -0.09654,0 -0.04827,0.04827 0.04827,0.241351 0,0.289622 -0.02276,0.02275 -0.07379,-0.02275 -0.09654,0 -0.04551,0.04551 0.04551,0.147571 0,0.193081 -0.02276,0.02276 -0.07379,-0.02275 -0.09654,0 -0.01974,0.01974 0.01914,0.251344 0,0.289622 -0.02035,0.04071 -0.07619,0.05584 -0.09654,0.09654 -0.02878,0.05756 0.04551,0.147571 0,0.193081 -0.02276,0.02275 -0.07379,-0.02276 -0.09654,0 -0.02276,0.02275 0,0.06436 0,0.09654 0,0.04552 0.0044,0.478328 0,0.482703 -0.02276,0.02276 -0.07379,-0.02275 -0.09654,0 -0.02323,0.02323 0.02323,0.362932 0,0.386163 -0.02275,0.02275 -0.07379,-0.02276 -0.09654,0 -0.04551,0.04551 0.04551,0.147571 0,0.193081 -0.02276,0.02275 -0.07379,-0.02276 -0.09654,0 -0.01974,0.01974 0.01914,0.251344 0,0.289622 -0.02035,0.0407 -0.07619,0.05584 -0.09654,0.09654 -0.01914,0.03828 0.01974,0.269885 0,0.289622 -0.02275,0.02276 -0.07379,-0.02275 -0.09654,0 -0.04551,0.04551 0.02878,0.135515 0,0.193081 -0.02035,0.04071 -0.07619,0.05584 -0.09654,0.09654 -0.02878,0.05757 0.04551,0.147571 0,0.193081 -0.02276,0.02276 -0.07379,-0.02275 -0.09654,0 -0.02323,0.02323 0.02323,0.362932 0,0.386163 -0.02275,0.02275 -0.07379,-0.02276 -0.09654,0 -0.02323,0.02323 0.02323,0.362932 0,0.386162 -0.02275,0.02275 -0.07379,-0.02275 -0.09654,0 -0.02323,0.02323 0.02323,0.362932 0,0.386163 -0.02275,0.02276 -0.07379,-0.02275 -0.09654,0 -0.02275,0.02276 0,0.06436 0,0.09654 0,0.04552 0.0044,0.478328 0,0.482703 -0.02275,0.02276 -0.07379,-0.02275 -0.09654,0 -0.04551,0.04551 0.02878,0.135516 0,0.193081 -0.02035,0.04071 -0.07619,0.05584 -0.09654,0.09654 -0.03862,0.07723 0.03862,0.21239 0,0.289622 -0.02035,0.0407 -0.07619,0.05584 -0.09654,0.09654 -0.01914,0.03828 0.01974,0.269885 0,0.289622 -0.02276,0.02276 -0.07379,-0.02275 -0.09654,0 -0.02323,0.02323 0.02323,0.362932 0,0.386163 -0.02275,0.02275 -0.07379,-0.02276 -0.09654,0 -0.04551,0.04551 0.04551,0.147571 0,0.193081 -0.02276,0.02275 -0.07379,-0.02276 -0.09654,0 -0.04827,0.04827 0.04827,0.241352 0,0.289622 -0.02276,0.02275 -0.07379,-0.02276 -0.09654,0 -0.04551,0.04551 0.04551,0.147572 0,0.193081 -0.02276,0.02275 -0.07379,-0.02276 -0.09654,0 -0.04827,0.04827 0.04827,0.241352 0,0.289622 -0.02276,0.02276 -0.07379,-0.02275 -0.09654,0 -0.02275,0.02276 0.02276,0.07379 0,0.09654 -0.02275,0.02276 -0.07379,-0.02275 -0.09654,0 -0.04827,0.04827 0.04827,0.241352 0,0.289622 -0.02276,0.02275 -0.07379,-0.02275 -0.09654,0 -0.04551,0.04551 0.04551,0.147572 0,0.193081 -0.02276,0.02276 -0.07379,-0.02275 -0.09654,0 -0.04551,0.04551 0.04551,0.147572 0,0.193082 -0.02276,0.02275 -0.07379,-0.02276 -0.09654,0 -0.06443,0.06443 0.06443,0.128651 0,0.193081 -0.02275,0.02275 -0.07379,-0.02276 -0.09654,0 -0.04551,0.04551 0.04551,0.147572 0,0.193081 -0.02275,0.02275 -0.07379,-0.02276 -0.09654,0 -0.04551,0.04551 0.04551,0.147572 0,0.193082 -0.02276,0.02275 -0.07379,-0.02275 -0.09654,0 -0.02276,0.02275 0.02275,0.07379 0,0.09654 -0.02276,0.02275 -0.07379,-0.02276 -0.09654,0 -0.04827,0.04827 0.04827,0.241352 0,0.289622 -0.02276,0.02276 -0.07379,-0.02275 -0.09654,0 -0.04551,0.04551 0.04551,0.147572 0,0.193082 -0.02276,0.02275 -0.07379,-0.02276 -0.09654,0 -0.04551,0.04551 0.04551,0.147571 0,0.193081 -0.02275,0.02275 -0.07379,-0.02276 -0.09654,0 -0.04827,0.04827 0.04827,0.241352 0,0.289622 -0.02276,0.02275 -0.07379,-0.02276 -0.09654,0 -0.04551,0.04551 0.04551,0.147572 0,0.193081 -0.02276,0.02276 -0.07379,-0.02275 -0.09654,0 -0.04551,0.04551 0.04551,0.147572 0,0.193082 -0.02276,0.02276 -0.07379,-0.02276 -0.09654,0 -0.04551,0.04551 0.04551,0.147571 0,0.193081 -0.02276,0.02275 -0.07379,-0.02276 -0.09654,0 -0.04551,0.04551 0.04551,0.147572 0,0.193081 -0.02275,0.02276 -0.07379,-0.02275 -0.09654,0 -0.04551,0.04551 0.04551,0.147572 0,0.193082 -0.02276,0.02276 -0.07379,-0.02276 -0.09654,0 -0.04551,0.04551 0.04551,0.147571 0,0.193081 -0.02276,0.02276 -0.07379,-0.02275 -0.09654,0 -0.04551,0.04551 0.04551,0.147572 0,0.193081 -0.02276,0.02276 -0.07379,-0.02275 -0.09654,0 -0.04551,0.04551 0.02878,0.135516 0,0.193082 -0.02035,0.04071 -0.07619,0.05584 -0.09654,0.09654 -0.01914,0.03828 0.01974,0.269886 0,0.289622 -0.02275,0.02276 -0.07379,-0.02275 -0.09654,0 -0.04551,0.04551 0.04551,0.147572 0,0.193082 -0.02276,0.02275 -0.07379,-0.02276 -0.09654,0 -0.04827,0.04827 0.04827,0.241351 0,0.289622 -0.02276,0.02276 -0.07379,-0.02276 -0.09654,0 -0.04827,0.04827 0.04827,0.241351 0,0.289622 -0.02276,0.02276 -0.07379,-0.02275 -0.09654,0 -0.02276,0.02276 0,0.06436 0,0.09654 0,0.04552 0.0044,0.478328 0,0.482704 -0.02276,0.02276 -0.07379,-0.02276 -0.09654,0 -0.02989,0.02989 0.02989,0.45281 0,0.482703 -0.02275,0.02276 -0.07379,-0.02276 -0.09654,0 -0.04827,0.04827 0.04827,0.241352 0,0.289622 -0.02276,0.02276 -0.07379,-0.02275 -0.09654,0 -0.02323,0.02323 0.02323,0.362932 0,0.386163 -0.02276,0.02275 -0.07379,-0.02276 -0.09654,0 -0.04551,0.04551 0.04551,0.147572 0,0.193081 -0.02276,0.02276 -0.07379,-0.02275 -0.09654,0 -0.02323,0.02323 0.02323,0.362932 0,0.386163 -0.02276,0.02275 -0.07379,-0.02276 -0.09654,0 -0.04551,0.04551 0.04551,0.147572 0,0.193081 -0.02275,0.02276 -0.07379,-0.02276 -0.09654,0 -0.02989,0.02989 0.02989,0.45281 0,0.482704 -0.02276,0.02275 -0.07379,-0.02276 -0.09654,0 -0.04827,0.04827 0.04827,0.241351 0,0.289622 -0.02276,0.02275 -0.07379,-0.02276 -0.09654,0 -0.02323,0.02323 0.02323,0.362932 0,0.386162 -0.02276,0.02275 -0.07379,-0.02276 -0.09654,0 -0.02323,0.02323 0.02323,0.362932 0,0.386163 -0.02275,0.02276 -0.07379,-0.02276 -0.09654,0 -0.02275,0.02276 0,0.06436 0,0.09654 0,0.03218 0,0.06436 0,0.09654 0,0.03218 0,0.06436 0,0.09654 0,0.03218 0.02276,0.07379 0,0.09654 -0.02275,0.02276 -0.07379,-0.02276 -0.09654,0 -0.02276,0.02276 0,0.06436 0,0.09654 0,0.04552 0.0044,0.478328 0,0.482704 -0.02276,0.02276 -0.07379,-0.02276 -0.09654,0 -0.04827,0.04827 0.04827,0.241351 0,0.289622 -0.02275,0.02276 -0.07379,-0.02275 -0.09654,0 -0.04551,0.04551 0.02878,0.135515 0,0.193081 -0.02035,0.04071 -0.07619,0.05584 -0.09654,0.09654 -0.02878,0.05756 0.04551,0.147571 0,0.193081 -0.02276,0.02276 -0.07379,-0.02275 -0.09654,0 -0.04551,0.04551 0.04551,0.147572 0,0.193081 -0.02275,0.02276 -0.07379,-0.02275 -0.09654,0 -0.04551,0.04551 0.04551,0.147572 0,0.193082 -0.02276,0.02275 -0.07379,-0.02276 -0.09654,0 -0.04551,0.04551 0.04551,0.147571 0,0.193081 -0.02276,0.02276 -0.07379,-0.02276 -0.09654,0 -0.04551,0.04551 0.04551,0.147572 0,0.193081 -0.02275,0.02275 -0.07379,-0.02275 -0.09654,0 -0.04827,0.04827 0.04827,0.241352 0,0.289622 -0.02276,0.02276 -0.07379,-0.02275 -0.09654,0 -0.04827,0.04827 0.04827,0.241352 0,0.289622 -0.02275,0.02275 -0.07379,-0.02275 -0.09654,0 -0.04551,0.04551 0.04551,0.147572 0,0.193082 -0.02275,0.02276 -0.07378,-0.02275 -0.09654,0 -0.04551,0.04551 0.04551,0.147571 0,0.193081 -0.02276,0.02276 -0.07379,-0.02276 -0.09654,0 -0.04551,0.04551 0.04551,0.147572 0,0.193081 -0.02276,0.02276 -0.07379,-0.02275 -0.09654,0 -0.04827,0.04827 0.04827,0.241352 0,0.289623 -0.02275,0.02275 -0.07379,-0.02276 -0.09654,0 -0.04827,0.04827 0.04827,0.241351 0,0.289622 -0.02275,0.02275 -0.07379,-0.02275 -0.09654,0 -0.04827,0.04827 0.04827,0.241351 0,0.289622 -0.02276,0.02275 -0.07379,-0.02276 -0.09654,0 -0.04827,0.04827 0.04827,0.241351 0,0.289622 -0.02275,0.02275 -0.07379,-0.02276 -0.09654,0 -0.04551,0.04551 0.04551,0.147571 0,0.193081 -0.02276,0.02275 -0.07379,-0.02276 -0.09654,0 -0.04551,0.04551 0.02878,0.135515 0,0.193081 -0.02035,0.04071 -0.07619,0.05584 -0.09654,0.09654 -0.02878,0.05757 0.04551,0.147572 0,0.193081 -0.02275,0.02275 -0.07379,-0.02276 -0.09654,0 -0.04827,0.04827 0.04827,0.241352 0,0.289622 -0.02276,0.02276 -0.07379,-0.02276 -0.09654,0 -0.04551,0.04551 0.04551,0.147572 0,0.193082 -0.02276,0.02275 -0.07379,-0.02276 -0.09654,0 -0.04551,0.04551 0.04551,0.147571 0,0.193081 -0.02275,0.02276 -0.07379,-0.02275 -0.09654,0 -0.04551,0.04551 0.04551,0.147572 0,0.193081 -0.02276,0.02276 -0.07379,-0.02276 -0.09654,0 -0.04551,0.04551 0.04551,0.147572 0,0.193082 -0.02275,0.02275 -0.07379,-0.02276 -0.09654,0 -0.04551,0.04551 0.04551,0.147571 0,0.193081 -0.02275,0.02276 -0.07378,-0.02276 -0.09654,0 -0.04551,0.04551 0.04551,0.147572 0,0.193081 -0.02276,0.02275 -0.07379,-0.02276 -0.09654,0 -0.02276,0.02275 0.02276,0.07379 0,0.09654 -0.02276,0.02276 -0.07379,-0.02275 -0.09654,0 -0.04551,0.04551 0.04551,0.147572 0,0.193081 -0.02275,0.02276 -0.07379,-0.02276 -0.09654,0 -0.02275,0.02276 0.02276,0.07379 0,0.09654 -0.02275,0.02276 -0.07379,-0.02276 -0.09654,0 -0.04551,0.04551 0.04551,0.147572 0,0.193081 -0.04551,0.04551 -0.147572,-0.04551 -0.193081,0 -0.02276,0.02276 0.02276,0.07379 0,0.09654 -0.02276,0.02276 -0.06436,0 -0.09654,0 0,0.03218 0.02276,0.07379 0,0.09654 -0.02276,0.02276 -0.07379,-0.02276 -0.09654,0 -0.02276,0.02276 0.02276,0.07379 0,0.09654 -0.04551,0.04551 -0.147571,-0.04551 -0.193081,0 -0.02276,0.02276 0.02275,0.07379 0,0.09654 -0.04551,0.04551 -0.147572,-0.04551 -0.193081,0 -0.02276,0.02275 0.02276,0.07379 0,0.09654 -0.04551,0.04551 -0.147572,-0.04551 -0.193082,0 -0.02275,0.02275 0.02276,0.07379 0,0.09654 -0.02275,0.02276 -0.06436,0 -0.09654,0 -0.04552,0 -0.478328,-0.0044 -0.482704,0 -0.02276,0.02276 0.02275,0.07379 0,0.09654 -0.02276,0.02276 -0.06436,0 -0.09654,0 -0.03218,0 -0.06436,0 -0.09654,0 -0.03218,0 -0.09654,0.03218 -0.09654,0 0,-0.03218 0.128721,0 0.09654,0 -0.02294,0 -0.364525,0.01082 -0.386163,0 -0.04071,-0.02035 -0.05584,-0.07619 -0.09654,-0.09654 -0.05757,-0.02878 -0.147572,0.04551 -0.193082,0 -0.02275,-0.02275 0.02276,-0.07379 0,-0.09654 -0.199746,-0.199746 0.0078,0.305238 -0.193081,-0.09654 -0.01439,-0.02878 0.02276,-0.07379 0,-0.09654 -0.02276,-0.02276 -0.06776,0.01439 -0.09654,0 -0.04071,-0.02035 -0.05584,-0.07619 -0.09654,-0.09654 -0.02878,-0.01439 -0.07379,0.02276 -0.09654,0 -0.02275,-0.02276 0.02276,-0.07379 0,-0.09654 -0.02275,-0.02275 -0.07379,0.02276 -0.09654,0 -0.02276,-0.02275 0.02275,-0.07379 0,-0.09654 -0.04551,-0.04551 -0.147571,0.04551 -0.193081,0 0,-0.257441 0.03218,0.03218 -0.09654,-0.09654 -0.02276,-0.02276 0.02276,-0.07379 0,-0.09654 -0.04551,-0.04551 -0.147571,0.04551 -0.193081,0 -0.02276,-0.02276 0.02275,-0.07379 0,-0.09654 -0.04551,-0.04551 -0.147572,0.04551 -0.193081,0 -0.02276,-0.02276 0.02275,-0.07379 0,-0.09654 -0.02276,-0.02275 -0.06776,0.01439 -0.09654,0 -0.04071,-0.02035 -0.05584,-0.07619 -0.09654,-0.09654 -0.05757,-0.02878 -0.147571,0.04551 -0.193081,0 -0.02276,-0.02275 0.02276,-0.07379 0,-0.09654 -0.04551,-0.04551 -0.147572,0.04551 -0.193081,0 -0.02275,-0.02276 0.02275,-0.07379 0,-0.09654 -0.02275,-0.02276 -0.06436,0 -0.09654,0 -0.225262,0 -0.450523,0 -0.675785,0 -0.06843,0 -0.554283,-0.01248 -0.579244,0 -0.04071,0.02035 -0.05584,0.07619 -0.09654,0.09654 -0.02938,0.01469 -0.246144,0 -0.289622,0 -0.225261,0 -0.450523,0 -0.675784,0 -0.03218,0 -0.06436,0 -0.09654,0 -0.03218,0 -0.07379,0.02275 -0.09654,0 -0.02275,-0.02276 0.02275,-0.07379 0,-0.09654 -0.04827,-0.04827 -0.241351,0.04827 -0.289622,0 -0.02275,-0.02276 0.02276,-0.07379 0,-0.09654 -0.04827,-0.04827 -0.241351,0.04827 -0.289622,0 -0.02275,-0.02276 0.02275,-0.07379 0,-0.09654 -0.04827,-0.04827 -0.241351,0.04827 -0.289622,0 -0.02275,-0.02276 0.02276,-0.07379 0,-0.09654 -0.04827,-0.04827 -0.241351,0.04827 -0.289622,0 -0.02276,-0.02276 0.02276,-0.07379 0,-0.09654 -0.01974,-0.01974 -0.251344,0.01914 -0.289622,0 -0.0407,-0.02035 -0.05583,-0.07619 -0.09654,-0.09654 -0.07723,-0.03862 -0.21239,0.03862 -0.289622,0 -0.0407,-0.02035 -0.05584,-0.07619 -0.09654,-0.09654 -0.02878,-0.01439 -0.06436,0 -0.09654,0 -0.03218,0 -0.06436,0 -0.09654,0 -0.193082,0 -0.386163,0 -0.579244,0 -0.03218,0 -0.07379,-0.02276 -0.09654,0 -0.02275,0.02275 0.02276,0.07379 0,0.09654 -0.02275,0.02276 -0.07379,-0.02276 -0.09654,0 -0.02275,0.02276 0.02276,0.07379 0,0.09654 -0.04551,0.04551 -0.147571,-0.04551 -0.193081,0 -0.02276,0.02275 0.02276,0.07379 0,0.09654 -0.02276,0.02275 -0.07379,-0.02276 -0.09654,0 -0.02276,0.02275 0.02276,0.07378 0,0.09654 -0.04551,0.04551 -0.147571,-0.04551 -0.193081,0 -0.02276,0.02276 0.02275,0.07379 0,0.09654 -0.02276,0.02276 -0.07379,-0.02276 -0.09654,0 -0.02276,0.02276 0.02275,0.07379 0,0.09654 -0.02276,0.02275 -0.07379,-0.02276 -0.09654,0 -0.02276,0.02275 0.02275,0.07379 0,0.09654 -0.02276,0.02275 -0.07379,-0.02276 -0.09654,0 -0.02276,0.02275 0.02276,0.07379 0,0.09654 -0.02276,0.02276 -0.07379,-0.02275 -0.09654,0 -0.02275,0.02276 0.02276,0.07379 0,0.09654 -0.02275,0.02276 -0.07379,-0.02275 -0.09654,0 -0.02276,0.02276 0.02275,0.07379 0,0.09654 -0.02276,0.02276 -0.07379,-0.02276 -0.09654,0 -0.02276,0.02276 0.02275,0.07379 0,0.09654 -0.02276,0.02276 -0.07379,-0.02276 -0.09654,0 -0.02276,0.02276 0.02276,0.07379 0,0.09654 -0.02276,0.02275 -0.07379,-0.02276 -0.09654,0 -0.02276,0.02275 0.02275,0.07379 0,0.09654 -0.02276,0.02276 -0.07379,-0.02275 -0.09654,0 -0.02275,0.02276 0.02276,0.07379 0,0.09654 -0.02275,0.02276 -0.07379,-0.02275 -0.09654,0 -0.02275,0.02276 0.02276,0.07379 0,0.09654 -0.02275,0.02276 -0.07379,-0.02276 -0.09654,0 -0.04551,0.04551 0.04551,0.147571 0,0.193081 -0.04551,0.04551 -0.147572,-0.04551 -0.193082,0 -0.02276,0.02275 0.02276,0.07379 0,0.09654 -0.02276,0.02275 -0.07379,-0.02276 -0.09654,0 -0.02275,0.02275 0.02275,0.07379 0,0.09654 -0.04551,0.04551 -0.147572,-0.04551 -0.193082,0 -0.02276,0.02276 0.02275,0.07379 0,0.09654 -0.04551,0.04551 -0.147571,-0.04551 -0.193081,0 -0.02276,0.02276 0.02276,0.07379 0,0.09654 -0.04551,0.04551 -0.135516,-0.02878 -0.193082,0 -0.0407,0.02035 -0.05583,0.07619 -0.09654,0.09654 -0.02496,0.01248 -0.510816,0 -0.579244,0 -0.386163,0 -0.772326,0 -1.158488,0 -0.03218,0 -0.06436,0 -0.09654,0 -0.03218,0 -0.07379,0.02275 -0.09654,0 -0.02275,-0.02275 0.02275,-0.07379 0,-0.09654 -0.02323,-0.02323 -0.362932,0.02323 -0.386162,0 -0.02275,-0.02276 0.02276,-0.07379 0,-0.09654 -0.04551,-0.04551 -0.147572,0.04551 -0.193082,0 -0.04827,-0.04827 0.04827,-0.241352 0,-0.289622 -0.02275,-0.02276 -0.07379,0.02275 -0.09654,0 -0.02276,-0.02276 0.02276,-0.07379 0,-0.09654 -0.02276,-0.02276 -0.07379,0.02276 -0.09654,0 -0.02276,-0.02276 0.02276,-0.07379 0,-0.09654 -0.04551,-0.04551 -0.147572,0.04551 -0.193081,0 -0.02276,-0.02276 0.02275,-0.07379 0,-0.09654 -0.02276,-0.02275 -0.06776,0.01439 -0.09654,0 -0.04071,-0.02035 -0.05584,-0.07619 -0.09654,-0.09654 -0.05756,-0.02878 -0.147571,0.04551 -0.193081,0 -0.02275,-0.02275 0.02276,-0.07379 0,-0.09654 -0.04551,-0.04551 -0.147572,0.04551 -0.193081,0 -0.02276,-0.02276 0.02276,-0.07379 0,-0.09654 -0.04827,-0.04827 -0.241352,0.04827 -0.289622,0 -0.02275,-0.02276 0.02275,-0.07379 0,-0.09654 -0.04551,-0.04551 -0.147572,0.04551 -0.193082,0 -0.02276,-0.02276 0.02275,-0.07379 0,-0.09654 -0.04551,-0.04551 -0.147571,0.04551 -0.193081,0 -0.02276,-0.02275 0.02276,-0.07379 0,-0.09654 -0.02323,-0.02323 -0.362932,0.02323 -0.386163,0 -0.02276,-0.02275 0.02276,-0.07379 0,-0.09654 -0.04827,-0.04827 -0.241351,0.04827 -0.289622,0 -0.02276,-0.02276 0.02275,-0.07379 0,-0.09654 -0.04551,-0.04551 -0.147571,0.04551 -0.193081,0 -0.02276,-0.02276 0.02276,-0.07379 0,-0.09654 -0.04827,-0.04827 -0.241352,0.04827 -0.289622,0 -0.02276,-0.02276 0.02275,-0.07379 0,-0.09654 -0.04827,-0.04827 -0.241352,0.04827 -0.289622,0 -0.02275,-0.02276 0.02276,-0.07379 0,-0.09654 -0.04827,-0.04827 -0.241352,0.04827 -0.289622,0 -0.02276,-0.02276 0.02275,-0.07379 0,-0.09654 -0.04827,-0.04827 -0.241352,0.04827 -0.289622,0 -0.02276,-0.02276 0.02275,-0.07379 0,-0.09654 -0.02323,-0.02323 -0.362932,0.02323 -0.386163,0 -0.02275,-0.02276 0.02276,-0.07379 0,-0.09654 -0.02275,-0.02276 -0.06436,0 -0.09654,0 -0.03218,0 -0.06436,0 -0.09654,0 -0.289622,0 -0.579244,0 -0.868866,0 -0.04552,0 -0.478328,-0.0044 -0.482704,0 -0.12872,0.128721 0.160902,0.09654 -0.09654,0.09654 -0.03218,0 -0.06436,0 -0.09654,0 -0.03218,0 -0.07379,-0.02276 -0.09654,0 -0.02275,0.02276 0.02275,0.07379 0,0.09654 -0.0044,0.0044 -0.437184,0 -0.482703,0 -0.03218,0 -0.07379,-0.02276 -0.09654,0 -0.02275,0.02275 0.02276,0.07379 0,0.09654 -0.02275,0.02275 -0.06436,0 -0.09654,0 -0.03218,0 -0.06436,0 -0.09654,0 -0.386163,0 -0.772325,0 -1.158488,0 -0.02341,0 -0.286517,-0.0031 -0.289622,0 -0.02276,0.02275 0.02275,0.07378 0,0.09654 -0.02276,0.02276 -0.06436,0 -0.09654,0 -0.03218,0 -0.06436,0 -0.09654,0 -0.193082,0 -0.386163,0 -0.579244,0 -0.03218,0 -0.07379,-0.02276 -0.09654,0 -0.02276,0.02276 0.02275,0.07379 0,0.09654 -0.04827,0.04827 -0.241352,-0.04827 -0.289622,0 -0.02276,0.02276 0.02275,0.07379 0,0.09654 -0.02276,0.02275 -0.06436,0 -0.09654,0 -0.03218,0 -0.09654,0.03218 -0.09654,0 0,-0.03218 0.12872,0 0.09654,0 -0.06436,0 -0.128721,0 -0.193081,0 -0.09654,0 -0.193081,0 -0.289622,0 -0.03218,0 -0.09654,0.03218 -0.09654,0 0,-0.03218 0.128721,0 0.09654,0 -0.128721,0 -0.257442,0 -0.386163,0 -0.03218,0 -0.07379,0.02275 -0.09654,0 -0.02275,-0.02276 0.02275,-0.07379 0,-0.09654 -0.02275,-0.02276 -0.07379,0.02276 -0.09654,0 -0.02276,-0.02276 0.02275,-0.07379 0,-0.09654 -0.02276,-0.02276 -0.07379,0.02276 -0.09654,0 -0.02276,-0.02276 0.02275,-0.07379 0,-0.09654 -0.02276,-0.02276 -0.06436,0 -0.09654,0 -0.257442,0 -0.193082,0.06436 -0.193082,-0.193082"
         transform="translate(-3,-2)"
         id="path3318"
         style="fill:none;stroke:#f60303;stroke-width:1.25;stroke-linecap:butt;stroke-linejoin:miter;stroke-miterlimit:4;stroke-opacity:1;stroke-dasharray:none" />
    </g>
    <g
       id="g4101"
       style="stroke:#031ff6;stroke-opacity:1">
      <g
         id="g4098"
         style="stroke:#031ff6;stroke-opacity:1">
        <path
           d="m 116.62113,44.468945 c -0.3218,0 -0.6436,0 -0.96541,0 -0.0322,0 -0.0644,0 -0.0965,0 -0.0322,0 -0.0738,-0.02275 -0.0965,0 -0.0227,0.02276 0.0228,0.07379 0,0.09654 -0.0227,0.02275 -0.0644,0 -0.0965,0 -0.22526,0 -0.45052,0 -0.67578,0 -0.0355,0 -0.38228,0.0039 -0.38617,0 -0.0228,-0.02275 0.0228,-0.07379 0,-0.09654 -0.0455,-0.04551 -0.14757,0.04551 -0.19308,0 -0.0228,-0.02275 0.0228,-0.07379 0,-0.09654 -0.0455,-0.04551 -0.14757,0.04551 -0.19308,0 -0.0228,-0.02275 0.0228,-0.07379 0,-0.09654 -0.0455,-0.04551 -0.14757,0.04551 -0.19308,0 -0.0227,-0.02275 0.0228,-0.07379 0,-0.09654 -0.0455,-0.04551 -0.14757,0.04551 -0.19308,0 -0.0228,-0.02275 0.0228,-0.07379 0,-0.09654 -0.0455,-0.04551 -0.14757,0.04551 -0.19308,0 -0.0228,-0.02275 0.0228,-0.07379 0,-0.09654 -0.0455,-0.04551 -0.14757,0.04551 -0.19308,0 -0.0228,-0.02275 0.0228,-0.07379 0,-0.09654 -0.0455,-0.04551 -0.14758,0.04551 -0.19308,0 -0.0228,-0.02276 0.0228,-0.07379 0,-0.09654 -0.0228,-0.02275 -0.0738,0.02275 -0.0966,0 -0.0227,-0.02275 0.0228,-0.07379 0,-0.09654 -0.0227,-0.02276 -0.0738,0.02275 -0.0965,0 -0.0228,-0.02276 0.0228,-0.07379 0,-0.09654 -0.0228,-0.02276 -0.0738,0.02275 -0.0965,0 -0.0228,-0.02276 0.0228,-0.07379 0,-0.09654 -0.0228,-0.02275 -0.0738,0.02276 -0.0965,0 -0.0227,-0.02275 0.0228,-0.07379 0,-0.09654 -0.0227,-0.02276 -0.0738,0.02275 -0.0965,0 -0.0228,-0.02276 0.0228,-0.07379 0,-0.09654 -0.0228,-0.02275 -0.0738,0.02276 -0.0965,0 -0.0455,-0.04551 0.0455,-0.147572 0,-0.193081 -0.0228,-0.02276 -0.0738,0.02275 -0.0965,0 -0.0227,-0.02276 0.0228,-0.07379 0,-0.09654 -0.0227,-0.02275 -0.0738,0.02276 -0.0965,0 -0.0228,-0.02275 0.0228,-0.07379 0,-0.09654 -0.0228,-0.02275 -0.0738,0.02275 -0.0965,0 -0.0455,-0.04551 0.0455,-0.147571 0,-0.193081 -0.0228,-0.02275 -0.0738,0.02276 -0.0965,0 -0.0228,-0.02275 0.0228,-0.07379 0,-0.09654 -0.0228,-0.02275 -0.0738,0.02275 -0.0965,0 -0.0455,-0.04551 0.0455,-0.147571 0,-0.193081 -0.0228,-0.02276 -0.0738,0.02275 -0.0965,0 -0.0455,-0.04551 0.0455,-0.147572 0,-0.193081 -0.0228,-0.02276 -0.0738,0.02275 -0.0965,0 -0.0455,-0.04551 0.0455,-0.147572 0,-0.193082 -0.0228,-0.02275 -0.0738,0.02276 -0.0965,0 -0.0455,-0.04551 0.0455,-0.147571 0,-0.193081 -0.0228,-0.02275 -0.0738,0.02276 -0.0965,0 -0.0483,-0.04827 0.0483,-0.241352 0,-0.289622 -0.0228,-0.02275 -0.0738,0.02276 -0.0966,0 -0.0455,-0.04551 0.0455,-0.147572 0,-0.193081 -0.0227,-0.02275 -0.0738,0.02276 -0.0965,0 -0.0455,-0.04551 0.0455,-0.147572 0,-0.193082 -0.0228,-0.02276 -0.0738,0.02275 -0.0965,0 -0.0483,-0.04827 0.0483,-0.241351 0,-0.289622 -0.0228,-0.02276 -0.0738,0.02275 -0.0965,0 -0.0483,-0.04827 0.0483,-0.241351 0,-0.289622 -0.0227,-0.02275 -0.0738,0.02276 -0.0965,0 -0.0455,-0.04551 0.0455,-0.147571 0,-0.193081 -0.0228,-0.02275 -0.0738,0.02275 -0.0965,0 -0.0232,-0.02323 0.0232,-0.362932 0,-0.386163 -0.0228,-0.02275 -0.0738,0.02276 -0.0965,0 -0.0232,-0.02323 0.0232,-0.362932 0,-0.386162 -0.0227,-0.02275 -0.0738,0.02275 -0.0965,0 -0.0299,-0.02989 0.0299,-0.45281 0,-0.482704 -0.0228,-0.02275 -0.0738,0.02276 -0.0965,0 -0.0299,-0.02989 0.0299,-0.45281 0,-0.482703 -0.0228,-0.02275 -0.0738,0.02276 -0.0965,0 -0.0232,-0.02323 0.0232,-0.362932 0,-0.386163 -0.0228,-0.02276 -0.0738,0.02275 -0.0965,0 -0.0232,-0.02323 0.0232,-0.362932 0,-0.386162 -0.0228,-0.02275 -0.0738,0.02275 -0.0965,0 -0.0455,-0.04551 0.0455,-0.147572 0,-0.193082 -0.0228,-0.02275 -0.0738,0.02276 -0.0965,0 -0.0455,-0.04551 0.0455,-0.147571 0,-0.193081 -0.0228,-0.02276 -0.0738,0.02275 -0.0965,0 -0.0228,-0.02276 0.0144,-0.06776 0,-0.09654 -0.0204,-0.0407 -0.0762,-0.05584 -0.0966,-0.09654 -0.0144,-0.02878 0.0228,-0.07379 0,-0.09654 -0.0228,-0.02275 -0.0738,0.02276 -0.0965,0 -0.0455,-0.04551 0.0455,-0.147572 0,-0.193082 -0.0227,-0.02275 -0.0738,0.02275 -0.0965,0 -0.0228,-0.02275 0.0144,-0.06776 0,-0.09654 -0.0204,-0.0407 -0.0762,-0.05584 -0.0965,-0.09654 -0.0144,-0.02878 0.0228,-0.07379 0,-0.09654 -0.0228,-0.02275 -0.0738,0.02275 -0.0965,0 -0.0455,-0.04551 0.0455,-0.147571 0,-0.193081 -0.0227,-0.02276 -0.0738,0.02275 -0.0965,0 -0.0228,-0.02276 0.0228,-0.07379 0,-0.09654 -0.0228,-0.02275 -0.0738,0.02276 -0.0965,0 -0.0455,-0.04551 0.0455,-0.147571 0,-0.193081 -0.0228,-0.02275 -0.0738,0.02275 -0.0965,0 -0.0455,-0.04551 0.0455,-0.147572 0,-0.193081 -0.0227,-0.02276 -0.0738,0.02275 -0.0965,0 -0.0483,-0.04827 0.0483,-0.241352 0,-0.289622 -0.0228,-0.02275 -0.0738,0.02276 -0.0965,0 -0.0483,-0.04827 0.0483,-0.241352 0,-0.289622 -0.0228,-0.02275 -0.0738,0.02276 -0.0965,0 -0.0483,-0.04827 0.0483,-0.241352 0,-0.289622 -0.0228,-0.02275 -0.0738,0.02276 -0.0965,0 -0.0455,-0.04551 0.0455,-0.147572 0,-0.193082 -0.0228,-0.02275 -0.0738,0.02276 -0.0965,0 -0.0455,-0.04551 0.0455,-0.147571 0,-0.193081 -0.0228,-0.02276 -0.0738,0.02275 -0.0965,0 -0.0455,-0.04551 0.0455,-0.147572 0,-0.193081 -0.0228,-0.02276 -0.0738,0.02275 -0.0965,0 -0.0455,-0.04551 0.0288,-0.135516 0,-0.193082 -0.0204,-0.0407 -0.0762,-0.05583 -0.0966,-0.09654 -0.0144,-0.02878 0.0228,-0.07379 0,-0.09654 -0.0228,-0.02275 -0.0738,0.02276 -0.0965,0 -0.0455,-0.04551 0.0455,-0.147572 0,-0.193081 -0.0227,-0.02275 -0.0738,0.02276 -0.0965,0 -0.0455,-0.04551 0.0455,-0.147572 0,-0.193082 -0.0228,-0.02276 -0.0738,0.02275 -0.0965,0 -0.0228,-0.02276 0.0228,-0.07379 0,-0.09654 -0.0228,-0.02275 -0.0738,0.02276 -0.0965,0 -0.0227,-0.02275 0.0228,-0.07379 0,-0.09654 -0.0227,-0.02276 -0.0738,0.02275 -0.0965,0 -0.0455,-0.04551 0.0455,-0.147572 0,-0.193081 -0.0228,-0.02276 -0.0738,0.02275 -0.0965,0 -0.0228,-0.02276 0.0228,-0.07379 0,-0.09654 -0.0228,-0.02276 -0.0738,0.02275 -0.0965,0 -0.0228,-0.02276 0.0228,-0.07379 0,-0.09654 -0.0228,-0.02275 -0.0738,0.02276 -0.0965,0 -0.0455,-0.04551 0.0455,-0.147571 0,-0.193081 -0.0228,-0.02275 -0.0738,0.02276 -0.0965,0 -0.0228,-0.02275 0.0228,-0.07379 0,-0.09654 -0.0228,-0.02275 -0.0738,0.02276 -0.0965,0 -0.0228,-0.02275 0.0228,-0.07379 0,-0.09654 -0.0228,-0.02275 -0.0738,0.02275 -0.0965,0 -0.0228,-0.02275 0.0227,-0.07379 0,-0.09654 -0.0228,-0.02275 -0.0738,0.02276 -0.0965,0 -0.0228,-0.02275 0.0228,-0.07379 0,-0.09654 -0.0228,-0.02276 -0.0738,0.02275 -0.0965,0 -0.0455,-0.04551 0.0455,-0.147571 0,-0.193081 -0.0228,-0.02276 -0.0738,0.02275 -0.0965,0 -0.0455,-0.04551 0.0455,-0.147572 0,-0.193081 -0.0228,-0.02275 -0.0738,0.02275 -0.0966,0 -0.0228,-0.02275 0.0228,-0.07379 0,-0.09654 -0.0228,-0.02276 -0.0738,0.02275 -0.0965,0 -0.0455,-0.04551 0.0455,-0.147572 0,-0.193081 -0.0227,-0.02276 -0.0738,0.02275 -0.0965,0 -0.0228,-0.02276 0.0228,-0.07379 0,-0.09654 -0.0228,-0.02276 -0.0738,0.02276 -0.0965,0 -0.0228,-0.02276 0.0228,-0.07379 0,-0.09654 -0.0455,-0.04551 -0.14757,0.04551 -0.19308,0 -0.0228,-0.02276 0.0228,-0.07379 0,-0.09654 -0.0228,-0.02276 -0.0738,0.02275 -0.0965,0 -0.0228,-0.02276 0.0228,-0.07379 0,-0.09654 -0.0455,-0.04551 -0.14757,0.04551 -0.19308,0 -0.0228,-0.02276 0.0228,-0.07379 0,-0.09654 -0.0228,-0.02276 -0.0738,0.02276 -0.0965,0 -0.0228,-0.02276 0.0228,-0.07379 0,-0.09654 -0.0455,-0.04551 -0.14757,0.04551 -0.19308,0 -0.0228,-0.02276 0.0227,-0.07379 0,-0.09654 -0.0455,-0.04551 -0.14757,0.04551 -0.19308,0 -0.0228,-0.02276 0.0228,-0.07379 0,-0.09654 -0.0455,-0.04551 -0.14758,0.04551 -0.19309,0 -0.0228,-0.02276 0.0228,-0.07379 0,-0.09654 -0.0455,-0.04551 -0.14757,0.04551 -0.19308,0 -0.0228,-0.02276 0.0228,-0.07379 0,-0.09654 -0.0228,-0.02276 -0.0644,0 -0.0965,0 -0.0644,0 -0.13551,0.02878 -0.19308,0 -0.0288,-0.01439 0.0228,-0.07379 0,-0.09654 -0.0455,-0.04551 -0.14757,0.04551 -0.19308,0 -0.0228,-0.02276 0.0228,-0.07379 0,-0.09654 -0.0455,-0.04551 -0.14757,0.04551 -0.19308,0 -0.0228,-0.02276 0.0228,-0.07379 0,-0.09654 -0.0455,-0.04551 -0.14757,0.04551 -0.19308,0 -0.0228,-0.02276 0.0227,-0.07379 0,-0.09654 -0.0232,-0.02323 -0.36293,0.02323 -0.38617,0 -0.0228,-0.02276 0.0228,-0.07379 0,-0.09654 -0.0455,-0.04551 -0.14757,0.04551 -0.19308,0 -0.0228,-0.02276 0.0228,-0.07379 0,-0.09654 -0.01,-0.0097 -0.27996,-0.0097 -0.28962,0 -0.0228,0.02276 0.0228,0.07379 0,0.09654 -0.0228,0.02275 -0.0644,0 -0.0965,0 -0.25744,0 0.0322,-0.03218 -0.0965,0.09654 -0.0455,0.04551 -0.14757,-0.04551 -0.19308,0 -0.0228,0.02276 0.0228,0.07379 0,0.09654 -0.0228,0.02276 -0.0644,0 -0.0965,0 -0.0322,0 -0.0738,-0.02276 -0.0965,0 -0.0228,0.02276 0.0227,0.07379 0,0.09654 -0.0455,0.04551 -0.13552,-0.02878 -0.19308,0 -0.0407,0.02035 -0.0558,0.07619 -0.0965,0.09654 -0.0576,0.02878 -0.14758,-0.04551 -0.19309,0 -0.0227,0.02276 0.0228,0.07379 0,0.09654 -0.0483,0.04827 -0.24135,-0.04827 -0.28962,0 -0.0228,0.02276 0.0228,0.07379 0,0.09654 -0.0228,0.02275 -0.0738,-0.02276 -0.0965,0 -0.0228,0.02275 0.0228,0.07379 0,0.09654 -0.0228,0.02276 -0.0738,-0.02276 -0.0965,0 -0.0228,0.02276 0.0228,0.07379 0,0.09654 -0.0228,0.02276 -0.0738,-0.02276 -0.0965,0 -0.0228,0.02276 0.0228,0.07379 0,0.09654 -0.0228,0.02275 -0.0738,-0.02276 -0.0965,0 -0.0228,0.02275 0.0227,0.07379 0,0.09654 -0.0228,0.02276 -0.0738,-0.02276 -0.0965,0 -0.0228,0.02276 0.0144,0.06776 0,0.09654 -0.0204,0.0407 -0.0762,0.05584 -0.0965,0.09654 -0.0144,0.02878 0.0228,0.07378 0,0.09654 -0.0228,0.02276 -0.0738,-0.02276 -0.0965,0 -0.0455,0.04551 0.0455,0.147572 0,0.193082 -0.12872,0.12872 -0.0965,-0.160902 -0.0965,0.09654 0,0.257442 0.0322,-0.03218 -0.0965,0.09654 -0.0455,0.04551 0.0455,0.147572 0,0.193081 -0.0228,0.02275 -0.0738,-0.02276 -0.0965,0 -0.0455,0.04551 0.0455,0.147572 0,0.193082 -0.0228,0.02275 -0.0738,-0.02275 -0.0966,0 -0.0455,0.04551 0.0455,0.147571 0,0.193081 -0.0228,0.02276 -0.0738,-0.02275 -0.0965,0 -0.0455,0.04551 0.0455,0.147572 0,0.193081 -0.0227,0.02276 -0.0738,-0.02275 -0.0965,0 -0.0228,0.02276 0.0228,0.07379 0,0.09654 -0.0228,0.02276 -0.0738,-0.02275 -0.0965,0 -0.0228,0.02276 0.0228,0.07379 0,0.09654 -0.0228,0.02275 -0.0738,-0.02276 -0.0965,0 -0.0228,0.02275 0.0228,0.07379 0,0.09654 -0.0228,0.02276 -0.0738,-0.02275 -0.0965,0 -0.0455,0.04551 0.0455,0.147572 0,0.193082 -0.0228,0.02275 -0.0738,-0.02276 -0.0965,0 -0.0228,0.02275 0.0228,0.07379 0,0.09654 -0.0228,0.02276 -0.0738,-0.02275 -0.0965,0 -0.0228,0.02276 0.0228,0.07379 0,0.09654 -0.0228,0.02275 -0.0738,-0.02276 -0.0965,0 -0.0228,0.02275 0.0144,0.06776 0,0.09654 -0.20089,0.401779 0.007,-0.103206 -0.19308,0.09654 -0.0455,0.04551 0.0455,0.147572 0,0.193082 -0.0228,0.02276 -0.0644,0 -0.0965,0 0,0.03218 0.0144,0.06776 0,0.09654 -0.0204,0.0407 -0.0762,0.05584 -0.0965,0.09654 -0.0144,0.02878 0.0322,0.09654 0,0.09654 -0.0322,0 0,-0.06436 0,-0.09654"
           transform="translate(-3,-2)"
           id="path4092"
           style="fill:none;stroke:#031ff6;stroke-width:1px;stroke-linecap:butt;stroke-linejoin:miter;stroke-opacity:1" />
      </g>
      <path
         d="m 56.862455,78.644343 c 0.128721,0 0.386163,-0.128721 0.386163,0 0,0.128721 -0.477182,0.09102 -0.386163,0 0.116028,-0.116028 0.320849,-0.06957 0.482704,-0.09654 0.03858,-0.0064 0.185374,0.0077 0.193081,0 0.02275,-0.02276 -0.02276,-0.07379 0,-0.09654 0.04551,-0.04551 0.135516,0.02878 0.193081,0 0.0407,-0.02035 0.05584,-0.07619 0.09654,-0.09654 0.05237,-0.02619 0.359747,0.02642 0.386163,0 0.02275,-0.02276 -0.02275,-0.07379 0,-0.09654 0.02275,-0.02275 0.06436,0 0.09654,0 0.225262,0 0.450523,0 0.675785,0 0.03545,0 0.382278,0.0039 0.386163,0 0.02276,-0.02275 -0.02275,-0.07379 0,-0.09654 0.02276,-0.02275 0.06436,0 0.09654,0 0.225262,0 0.450523,0 0.675785,0 0.160901,0 0.321802,0 0.482703,0 0.03218,0 0.07379,-0.02275 0.09654,0 0.02275,0.02276 -0.02276,0.07379 0,0.09654 0.0044,0.0044 0.437185,0 0.482703,0 1.094128,0 2.188256,0 3.282383,0"
         transform="translate(-3,-2)"
         id="path4094"
         style="fill:none;stroke:#031ff6;stroke-width:1px;stroke-linecap:butt;stroke-linejoin:miter;stroke-opacity:1" />
      <path
         d="m 67.67501,77.389314 c -0.04933,-0.374048 0.366676,0.212568 0.482704,0.09654 0.02276,-0.02276 -0.02276,-0.07379 0,-0.09654 0.04551,-0.04551 0.147571,0.04551 0.193081,0 0.02275,-0.02276 -0.02276,-0.07379 0,-0.09654 0.04827,-0.04827 0.241352,0.04827 0.289622,0 0.02276,-0.02276 -0.02276,-0.07379 0,-0.09654 0.01974,-0.01974 0.251345,0.01914 0.289622,0 0.04071,-0.02035 0.05584,-0.07619 0.09654,-0.09654 0.02878,-0.01439 0.07379,0.02275 0.09654,0 0.02276,-0.02276 -0.02275,-0.07379 0,-0.09654 0.04827,-0.04827 0.241352,0.04827 0.289622,0 0.02276,-0.02276 -0.02275,-0.07379 0,-0.09654 0.04551,-0.04551 0.147572,0.04551 0.193082,0 0.02276,-0.02276 -0.02276,-0.07379 0,-0.09654 0.04551,-0.04551 0.147571,0.04551 0.193081,0 0.02275,-0.02275 -0.02276,-0.07379 0,-0.09654 0.04551,-0.04551 0.147572,0.04551 0.193082,0 0.02275,-0.02275 -0.02275,-0.07379 0,-0.09654 0.04551,-0.04551 0.147571,0.04551 0.193081,0 0.128721,-0.128721 -0.160901,-0.09654 0.09654,-0.09654 0.257441,0 -0.03218,0.03218 0.09654,-0.09654 0.02276,-0.02276 0.09654,-0.03218 0.09654,0 0,0.03218 -0.06436,0 -0.09654,0"
         transform="translate(-3,-2)"
         id="path4096"
         style="fill:none;stroke:#031ff6;stroke-width:1px;stroke-linecap:butt;stroke-linejoin:miter;stroke-opacity:1" />
    </g>
    <path
       d="m 49.621905,21.299184 0,66.613063"
       transform="translate(-3,-2)"
       id="path4109"
       style="fill:none;stroke:#000000;stroke-width:1px;stroke-linecap:butt;stroke-linejoin:miter;stroke-opacity:1" />
    <path
       d="m 49.718446,89.843061 -0.09654,3.475464 5.020114,-0.09654"
       transform="translate(-3,-2)"
       id="path4111"
       style="fill:none;stroke:#000000;stroke-width:1px;stroke-linecap:butt;stroke-linejoin:miter;stroke-opacity:1" />
    <path
       d="m 56.379752,93.415065 69.509288,-0.09654"
       transform="translate(-3,-2)"
       id="path4113"
       style="fill:none;stroke:#000000;stroke-width:1px;stroke-linecap:butt;stroke-linejoin:miter;stroke-opacity:1" />
    <path
       d="m 48.270336,88.684572 2.799679,-1.061947"
       transform="translate(-3,-2)"
       id="path4115"
       style="fill:none;stroke:#000000;stroke-width:1px;stroke-linecap:butt;stroke-linejoin:miter;stroke-opacity:1" />
    <path
       d="m 48.366876,90.325764 2.89622,-1.061947"
       transform="translate(-3,-2)"
       id="path4117"
       style="fill:none;stroke:#000000;stroke-width:1px;stroke-linecap:butt;stroke-linejoin:miter;stroke-opacity:1" />
    <path
       d="m 53.869694,94.380472 1.737733,-2.703139"
       transform="translate(-3,-2)"
       id="path4119"
       style="fill:none;stroke:#000000;stroke-width:1px;stroke-linecap:butt;stroke-linejoin:miter;stroke-opacity:1" />
    <path
       d="m 56.669374,92.449659 -1.737732,2.799679"
       transform="translate(-3,-2)"
       id="path4121"
       style="fill:none;stroke:#000000;stroke-width:1px;stroke-linecap:butt;stroke-linejoin:miter;stroke-opacity:1" />
    <path
       d="m 60.241379,92.063496 0.09654,1.351569 0,0"
       transform="translate(-3,-2)"
       id="path4123"
       style="fill:none;stroke:#000000;stroke-width:1px;stroke-linecap:butt;stroke-linejoin:miter;stroke-opacity:1" />
    <path
       d="m 103.4916,91.677333 0.19308,2.027354"
       transform="translate(-3,-2)"
       id="path4125"
       style="fill:none;stroke:#000000;stroke-width:1px;stroke-linecap:butt;stroke-linejoin:miter;stroke-opacity:1" />
    <path
       d="m 51.263096,33.366768 -1.54465,0.09654"
       transform="translate(-3,-2)"
       id="path4127"
       style="fill:none;stroke:#000000;stroke-width:1px;stroke-linecap:butt;stroke-linejoin:miter;stroke-opacity:1" />
    <path
       d="m 51.359637,45.434352 -1.544651,0"
       transform="translate(-3,-2)"
       id="path4129"
       style="fill:none;stroke:#000000;stroke-width:1px;stroke-linecap:butt;stroke-linejoin:miter;stroke-opacity:1" />
    <path
       d="m 51.166556,57.405395 -1.641192,0.09654"
       transform="translate(-3,-2)"
       id="path4131"
       style="fill:none;stroke:#000000;stroke-width:1px;stroke-linecap:butt;stroke-linejoin:miter;stroke-opacity:1" />
    <path
       d="m 51.166556,69.279898 -1.641192,-0.09654"
       transform="translate(-3,-2)"
       id="path4137"
       style="fill:none;stroke:#000000;stroke-width:1px;stroke-linecap:butt;stroke-linejoin:miter;stroke-opacity:1" />
    <path
       d="M 51.263096,81.347481 49.428824,81.1544"
       transform="translate(-3,-2)"
       id="path4139"
       style="fill:none;stroke:#000000;stroke-width:1px;stroke-linecap:butt;stroke-linejoin:miter;stroke-opacity:1" />
    <text
       x="60.759102"
       y="103.81007"
       id="text4141"
       xml:space="preserve"
       style="font-size:12px;font-style:normal;font-variant:normal;font-weight:bold;font-stretch:normal;line-height:125%;letter-spacing:0px;word-spacing:0px;fill:#000000;fill-opacity:1;stroke:none;font-family:Courier;-inkscape-font-specification:Sans Bold"><tspan
         x="60.759102"
         y="103.81007"
         id="tspan4143"><tspan
           id="tspan4145"
           style="font-size:6px;font-style:normal;font-variant:normal;font-weight:bold;font-stretch:normal;text-align:start;line-height:125%;writing-mode:lr-tb;text-anchor:start;font-family:Courier;-inkscape-font-specification:Courier Bold">Time(seconds)</tspan></tspan></text>
    <text
       x="55.832951"
       y="96.536148"
       id="text4141-3"
       xml:space="preserve"
       style="font-size:12px;font-style:normal;font-variant:normal;font-weight:bold;font-stretch:normal;line-height:125%;letter-spacing:0px;word-spacing:0px;fill:#000000;fill-opacity:1;stroke:none;font-family:Courier;-inkscape-font-specification:Sans Bold"><tspan
         x="55.832951"
         y="96.536148"
         id="tspan4143-6"
         style="font-size:6px;font-style:normal;font-variant:normal;font-weight:bold;font-stretch:normal;text-align:start;line-height:125%;writing-mode:lr-tb;text-anchor:start;font-family:Courier;-inkscape-font-specification:Courier Bold">1</tspan></text>
    <text
       x="99.089668"
       y="96.57962"
       id="text4141-3-5"
       xml:space="preserve"
       style="font-size:12px;font-style:normal;font-variant:normal;font-weight:bold;font-stretch:normal;line-height:125%;letter-spacing:0px;word-spacing:0px;fill:#000000;fill-opacity:1;stroke:none;font-family:Courier;-inkscape-font-specification:Sans Bold"><tspan
         x="99.089668"
         y="96.57962"
         id="tspan4143-6-3"
         style="font-size:6px;font-style:normal;font-variant:normal;font-weight:bold;font-stretch:normal;text-align:start;line-height:125%;writing-mode:lr-tb;text-anchor:start;font-family:Courier;-inkscape-font-specification:Courier Bold">2</tspan></text>
    <text
       x="38.607262"
       y="81.288353"
       id="text4141-3-56"
       xml:space="preserve"
       style="font-size:12px;font-style:normal;font-variant:normal;font-weight:bold;font-stretch:normal;line-height:125%;letter-spacing:0px;word-spacing:0px;fill:#000000;fill-opacity:1;stroke:none;font-family:Courier;-inkscape-font-specification:Sans Bold"><tspan
         x="38.607262"
         y="81.288353"
         id="tspan4143-6-2"
         style="font-size:6px;font-style:normal;font-variant:normal;font-weight:bold;font-stretch:normal;text-align:start;line-height:125%;writing-mode:lr-tb;text-anchor:start;font-family:Courier;-inkscape-font-specification:Courier Bold">30</tspan></text>
    <text
       x="38.412254"
       y="33.870754"
       id="text4141-3-56-9"
       xml:space="preserve"
       style="font-size:12px;font-style:normal;font-variant:normal;font-weight:bold;font-stretch:normal;line-height:125%;letter-spacing:0px;word-spacing:0px;fill:#000000;fill-opacity:1;stroke:none;font-family:Courier;-inkscape-font-specification:Sans Bold"><tspan
         x="38.412254"
         y="33.870754"
         id="tspan4143-6-2-1"
         style="font-size:6px;font-style:normal;font-variant:normal;font-weight:bold;font-stretch:normal;text-align:start;line-height:125%;writing-mode:lr-tb;text-anchor:start;font-family:Courier;-inkscape-font-specification:Courier Bold">70</tspan></text>
    <text
       x="-85.431435"
       y="34.877964"
       transform="matrix(0,-1,1,0,0,0)"
       id="text4141-2"
       xml:space="preserve"
       style="font-size:12px;font-style:normal;font-variant:normal;font-weight:bold;font-stretch:normal;line-height:125%;letter-spacing:0px;word-spacing:0px;fill:#000000;fill-opacity:1;stroke:none;font-family:Courier;-inkscape-font-specification:Sans Bold"><tspan
         x="-85.431435"
         y="34.877964"
         id="tspan4143-7"><tspan
           id="tspan4246"
           style="font-size:6px;font-style:normal;font-variant:normal;font-weight:bold;font-stretch:normal;text-align:start;line-height:125%;writing-mode:lr-tb;text-anchor:start;font-family:Courier;-inkscape-font-specification:Courier Bold">Grip aperture (mm)</tspan></tspan></text>
    <text
       x="76.175797"
       y="24.858366"
       id="text4141-9"
       xml:space="preserve"
       style="font-size:6px;font-style:normal;font-variant:normal;font-weight:bold;font-stretch:normal;text-align:start;line-height:125%;letter-spacing:0px;word-spacing:0px;writing-mode:lr-tb;text-anchor:start;fill:#000000;fill-opacity:1;stroke:none;font-family:Courier;-inkscape-font-specification:Courier Bold"><tspan
         x="76.175797"
         y="24.858366"
         id="tspan4143-3"
         style="fill:#ff0000">Large</tspan><tspan
         x="76.175797"
         y="32.358368"
         id="tspan4278"
         style="fill:#ff0000">disc</tspan></text>
    <text
       x="101.58131"
       y="48.515774"
       id="text4272"
       xml:space="preserve"
       style="font-size:6px;font-style:normal;font-variant:normal;font-weight:bold;font-stretch:normal;text-align:start;line-height:125%;letter-spacing:0px;word-spacing:0px;writing-mode:lr-tb;text-anchor:start;fill:#000000;fill-opacity:1;stroke:none;font-family:Courier;-inkscape-font-specification:Courier Bold"><tspan
         x="101.58131"
         y="48.515774"
         id="tspan4274"
         style="fill:#0000ff">Small</tspan><tspan
         x="101.58131"
         y="56.015774"
         id="tspan4276"
         style="fill:#0000ff">disc</tspan></text>
    <text
       x="37.674576"
       y="12.843792"
       id="text4141-0"
       xml:space="preserve"
       style="font-size:12px;font-style:normal;font-variant:normal;font-weight:bold;font-stretch:normal;line-height:125%;letter-spacing:0px;word-spacing:0px;fill:#000000;fill-opacity:1;stroke:none;font-family:Courier;-inkscape-font-specification:Sans Bold"><tspan
         x="37.674576"
         y="12.843792"
         id="tspan4143-62"
         style="font-size:6px">Perceptually same trials</tspan></text>
  </g>
</svg>
