<?xml version="1.0" encoding="UTF-8" standalone="no"?>
<!-- Created with Inkscape (http://www.inkscape.org/) -->

<svg
   xmlns:dc="http://purl.org/dc/elements/1.1/"
   xmlns:cc="http://creativecommons.org/ns#"
   xmlns:rdf="http://www.w3.org/1999/02/22-rdf-syntax-ns#"
   xmlns:svg="http://www.w3.org/2000/svg"
   xmlns="http://www.w3.org/2000/svg"
   xmlns:inkscape="http://www.inkscape.org/namespaces/inkscape"
   version="1.1"
   width="488.62689"
   height="281.68307"
   id="svg2">
  <defs
     id="defs4">
    <inkscape:path-effect
       effect="spiro"
       id="path-effect3027" />
  </defs>
  <metadata
     id="metadata7">
    <rdf:RDF>
      <cc:Work
         rdf:about="">
        <dc:format>image/svg+xml</dc:format>
        <dc:type
           rdf:resource="http://purl.org/dc/dcmitype/StillImage" />
        <dc:title></dc:title>
      </cc:Work>
    </rdf:RDF>
  </metadata>
  <g
     transform="translate(-13.120902,-175.12721)"
     id="layer1">
    <g
       id="g4079">
      <path
         d="m 283.72649,300.47478 192.72909,0"
         id="path4045-0"
         style="fill:none;stroke:#000000;stroke-width:2.5;stroke-linecap:butt;stroke-linejoin:miter;stroke-miterlimit:4;stroke-opacity:1;stroke-dasharray:2.5, 2.5;stroke-dashoffset:0" />
      <path
         d="m 34.642444,299.98685 192.729086,0"
         id="path4045"
         style="fill:none;stroke:#000000;stroke-width:2.5;stroke-linecap:butt;stroke-linejoin:miter;stroke-miterlimit:4;stroke-opacity:1;stroke-dasharray:2.5, 2.5;stroke-dashoffset:0" />
      <path
         d="m 224.0446,391.36646 -24.1509,0 c -17.05032,4.1355 -28.19403,14.91594 -37.9514,27.25601 -9.70371,-2.73267 -12.26625,-14.19344 -13.80051,-26.911 l -1.03504,-22.08081 -41.05653,-0.69003 c -5.49109,-1.40462 -10.233791,-1.59311 -30.016114,-26.22098 -6.18479,4.79948 -16.183079,27.56607 -13.455499,48.99182 l -31.74117,0"
         id="path3041"
         style="fill:none;stroke:#000000;stroke-width:2.5;stroke-linecap:butt;stroke-linejoin:miter;stroke-miterlimit:4;stroke-opacity:1;stroke-dasharray:none" />
      <path
         d="m 275.67578,391.71614 30.25115,0 c 3.63844,-9.33723 8.26419,-16.80954 23.42024,-4.39129 l 60.01438,0 c 1.46248,20.31634 4.11229,41.34677 19.51687,50.25593 24.83441,-19.56646 44.0137,-37.46922 74.65203,-43.91295 l -2.43962,0"
         id="path3829"
         style="fill:none;stroke:#000000;stroke-width:2.5;stroke-linecap:butt;stroke-linejoin:miter;stroke-miterlimit:4;stroke-opacity:1;stroke-dasharray:none" />
      <path
         d="m 36.106208,299.01101 30.25115,0 0,0.48792 c 1.65179,-34.32748 7.33215,-44.48359 14.14973,-47.81633 l 0,0.48792 0,-0.48792 73.188262,0 c 4.50974,19.46737 1.30931,49.21496 20.00479,49.76802 l 54.64724,0"
         id="path3900"
         style="fill:none;stroke:#ff0000;stroke-width:2.5;stroke-linecap:butt;stroke-linejoin:miter;stroke-miterlimit:4;stroke-opacity:1;stroke-dasharray:none" />
      <path
         d="m 35.398828,299.49893 48.74317,0 c 10.46916,14.49103 21.373522,31.15804 28.080002,26.83569 l 57.57477,0 c 8.44138,-9.79826 16.39828,-20.80771 27.32362,-24.39608 l 30.73907,0"
         id="path3902"
         style="fill:none;stroke:#0000ff;stroke-width:2.5;stroke-linecap:butt;stroke-linejoin:miter;stroke-miterlimit:4;stroke-opacity:1;stroke-dasharray:none" />
      <path
         d="m 282.52802,299.75235 30.24444,0 0,0.53055 c 1.65142,-37.32695 7.33052,-48.37048 14.14659,-51.99443 l 0,0.53055 0,-0.53055 73.17202,0 c 4.50874,21.16839 1.30902,53.51527 20.00035,54.11666 l 54.63511,0"
         id="path3900-6"
         style="fill:none;stroke:#ff0000;stroke-width:2.5;stroke-linecap:butt;stroke-linejoin:miter;stroke-miterlimit:4;stroke-opacity:1;stroke-dasharray:none" />
      <path
         d="m 280.69937,301.60103 35.92849,0 c -1.58367,32.56462 30.00218,55.86447 40.69183,45.86453 l 53.03144,0.48793 c 13.29831,-12.48641 37.82354,-28.46257 48.72003,-34.46492 l 13.58064,-7.80675"
         id="path3902-7"
         style="fill:none;stroke:#0000ff;stroke-width:2.5;stroke-linecap:butt;stroke-linejoin:miter;stroke-miterlimit:4;stroke-opacity:1;stroke-dasharray:none" />
      <path
         d="m 39.521663,215.57639 34.15452,0 0,-21.46856 88.313837,0 0,21.46856 71.72449,0"
         id="path3940"
         style="fill:none;stroke:#177617;stroke-width:2.5;stroke-linecap:butt;stroke-linejoin:miter;stroke-miterlimit:4;stroke-opacity:1;stroke-dasharray:none" />
      <text
         x="240.0575"
         y="219.47977"
         id="text3942"
         xml:space="preserve"
         style="font-size:16px;font-style:normal;font-variant:normal;font-weight:bold;font-stretch:normal;line-height:125%;letter-spacing:0px;word-spacing:0px;fill:#008000;fill-opacity:1;stroke:none;font-family:Courier;-inkscape-font-specification:Sans Bold"><tspan
           x="240.0575"
           y="219.47977"
           id="tspan3944">DRUG</tspan></text>
      <text
         x="204.18953"
         y="273.43188"
         id="text3942-5"
         xml:space="preserve"
         style="font-size:16px;font-style:normal;font-variant:normal;font-weight:bold;font-stretch:normal;line-height:125%;letter-spacing:0px;word-spacing:0px;fill:#ff0000;fill-opacity:1;stroke:none;font-family:Courier;-inkscape-font-specification:Sans Bold"><tspan
           x="204.18953"
           y="273.43188"
           id="tspan3944-3">A-process</tspan></text>
      <text
         x="203.39357"
         y="340.02896"
         id="text3942-5-5"
         xml:space="preserve"
         style="font-size:16px;font-style:normal;font-variant:normal;font-weight:bold;font-stretch:normal;line-height:125%;letter-spacing:0px;word-spacing:0px;fill:#0000ff;fill-opacity:1;stroke:none;font-family:Courier;-inkscape-font-specification:Sans Bold"><tspan
           x="203.39357"
           y="340.02896"
           id="tspan3944-3-6">B-process</tspan></text>
      <text
         x="199.7061"
         y="411.26556"
         id="text3942-5-5-2"
         xml:space="preserve"
         style="font-size:16px;font-style:normal;font-variant:normal;font-weight:bold;font-stretch:normal;line-height:125%;letter-spacing:0px;word-spacing:0px;fill:#0000ff;fill-opacity:1;stroke:none;font-family:Courier;-inkscape-font-specification:Sans Bold"><tspan
           x="199.7061"
           y="411.26556"
           id="tspan3944-3-6-9"
           style="fill:#000000">Experience</tspan></text>
      <path
         d="m 286.89799,215.57639 34.15452,0 0,-21.46856 88.31384,0 0,21.46856 71.72449,0"
         id="path3940-1"
         style="fill:none;stroke:#177617;stroke-width:2.5;stroke-linecap:butt;stroke-linejoin:miter;stroke-miterlimit:4;stroke-opacity:1;stroke-dasharray:none" />
      <path
         d="m 30.983029,391.22822 192.729101,0"
         id="path4045-9"
         style="fill:none;stroke:#000000;stroke-width:2.5;stroke-linecap:butt;stroke-linejoin:miter;stroke-miterlimit:4;stroke-opacity:1;stroke-dasharray:2.5, 2.5;stroke-dashoffset:0" />
      <path
         d="m 291.53324,391.22822 192.72909,0"
         id="path4045-3"
         style="fill:none;stroke:#000000;stroke-width:2.5;stroke-linecap:butt;stroke-linejoin:miter;stroke-miterlimit:4;stroke-opacity:1;stroke-dasharray:2.5, 2.5;stroke-dashoffset:0" />
    </g>
  </g>
</svg>
